JosefinSlab-Italic-TTF.ufo
<glyph name="exclam" format="1">
  <advance width="201"/>
  <unicode hex="0021"/>
  <outline>
    <contour>
      <point x="48" y="22" type="qcurve" name="av01"/>
      <point x="36" y="22"/>
      <point x="19" y="41"/>
      <point x="21" y="55" type="qcurve" name="sh01"/>
      <point x="22" y="69"/>
      <point x="46" y="88"/>
      <point x="58" y="88" type="qcurve" name="sv01"/>
      <point x="70" y="88"/>
      <point x="87" y="69"/>
      <point x="85" y="55" type="qcurve" name="sh02"/>
      <point x="83" y="41"/>
      <point x="61" y="22"/>
    </contour>
    <contour>
      <point x="130" y="750" type="line" name="ah01"/>
      <point x="171" y="750" type="line" name="sh03"/>
      <point x="89" y="166" type="line" name="sh04"/>
      <point x="48" y="166" type="line" name="sh05"/>
    </contour>
  </outline>
</glyph>
<glyph name="quotedbl" format="1">
  <advance width="310"/>
  <unicode hex="0022"/>
  <outline>
    <contour>
      <point x="178" y="472" type="line" name="sh03"/>
      <point x="213" y="720" type="line" name="sh01"/>
      <point x="257" y="720" type="line" name="sh02"/>
      <point x="247" y="657"/>
      <point x="228" y="535"/>
      <point x="218" y="472" type="qcurve" name="sh04"/>
    </contour>
    <contour>
      <point x="45" y="472" type="line" name="sh06"/>
      <point x="80" y="720" type="line" name="ah01"/>
      <point x="124" y="720" type="line" name="sh05"/>
      <point x="114" y="657"/>
      <point x="95" y="535"/>
      <point x="85" y="472" type="qcurve" name="sh07"/>
    </contour>
  </outline>
</glyph>
<glyph name="quotesingle" format="1">
  <advance width="153"/>
  <unicode hex="0027"/>
  <outline>
    <contour>
      <point x="39" y="472" type="line" name="sh02"/>
      <point x="74" y="720" type="line" name="ah01"/>
      <point x="118" y="720" type="line" name="sh01"/>
      <point x="108" y="657"/>
      <point x="89" y="535"/>
      <point x="79" y="472" type="qcurve" name="sh03"/>
    </contour>
  </outline>
</glyph>
<glyph name="plus" format="1">
  <advance width="543"/>
  <unicode hex="002B"/>
  <outline>
    <contour>
      <point x="219" y="51" type="line" name="ah01"/>
      <point x="242" y="211" type="line" name="ih01"/>
      <point x="83" y="211" type="line" name="sh02"/>
      <point x="89" y="252" type="line"/>
      <point x="248" y="252" type="line" name="ih02"/>
      <point x="270" y="411" type="line" name="sh01"/>
      <point x="312" y="411" type="line" name="sh03"/>
      <point x="290" y="252" type="line" name="ih03"/>
      <point x="449" y="252" type="line"/>
      <point x="443" y="211" type="line" name="sh05"/>
      <point x="284" y="211" type="line" name="ih04"/>
      <point x="261" y="51" type="line" name="sh04"/>
    </contour>
  </outline>
</glyph>
<glyph name="hyphen" format="1">
  <advance width="300"/>
  <unicode hex="002D"/>
  <unicode hex="00AD"/>
  <outline>
    <contour>
      <point x="50" y="169" type="line" name="ah01"/>
      <point x="55" y="210" type="line" name="sv01"/>
      <point x="239" y="210" type="line"/>
      <point x="234" y="169" type="line" name="sh01"/>
    </contour>
  </outline>
</glyph>
<glyph name="zero" format="1">
  <advance width="616"/>
  <unicode hex="0030"/>
  <outline>
    <contour>
      <point x="36" y="327" type="qcurve" name="dh01"/>
      <point x="45" y="386"/>
      <point x="95" y="505" name="fh01"/>
      <point x="135.5" y="552.0" type="qcurve" smooth="yes" name="inserted"/>
      <point x="176" y="599" name="fh02"/>
      <point x="286" y="658"/>
      <point x="354" y="658" type="qcurve" name="at01"/>
      <point x="421" y="658"/>
      <point x="512" y="598" name="fh03"/>
      <point x="538.5" y="550.0" type="qcurve" smooth="yes" name="inserted"/>
      <point x="565" y="502" name="fh04"/>
      <point x="581" y="383"/>
      <point x="572" y="324" type="qcurve" name="dh02"/>
      <point x="561" y="252"/>
      <point x="500" y="130" name="fh05"/>
      <point x="456.5" y="86.0" type="qcurve" smooth="yes" name="inserted"/>
      <point x="413" y="42" name="fh06"/>
      <point x="308" y="-7"/>
      <point x="255" y="-7" type="qcurve" name="ab01"/>
      <point x="202" y="-7"/>
      <point x="112" y="44" name="fh07"/>
      <point x="81.5" y="88.5" type="qcurve" smooth="yes" name="inserted"/>
      <point x="51" y="133" name="fh08"/>
      <point x="25" y="255"/>
    </contour>
    <contour>
      <point x="79" y="327" type="qcurve" name="sh01"/>
      <point x="70" y="262"/>
      <point x="91" y="154" name="fh09"/>
      <point x="116.5" y="115.5" type="qcurve" smooth="yes" name="inserted"/>
      <point x="142" y="77" name="fh10"/>
      <point x="218" y="33" name="fh11"/>
      <point x="262" y="33" type="qcurve" name="sv01"/>
      <point x="305" y="33" name="fh12"/>
      <point x="393" y="75" name="fh13"/>
      <point x="430.0" y="113.0" type="qcurve" smooth="yes" name="inserted"/>
      <point x="467" y="151" name="fh14"/>
      <point x="521" y="258"/>
      <point x="530" y="323" type="qcurve" name="sh02"/>
      <point x="539" y="382"/>
      <point x="523" y="488" name="fh15"/>
      <point x="500.0" y="528.5" type="qcurve" smooth="yes" name="inserted"/>
      <point x="477" y="569" name="fh16"/>
      <point x="400" y="617"/>
      <point x="347" y="617" type="qcurve" name="sv02"/>
      <point x="294" y="617"/>
      <point x="204" y="571"/>
      <point x="169.0" y="531.0" type="qcurve" smooth="yes" name="inserted"/>
      <point x="134" y="491" name="fv01"/>
      <point x="87" y="385"/>
    </contour>
  </outline>
</glyph>
<glyph name="three" format="1">
  <advance width="515"/>
  <unicode hex="0033"/>
  <outline>
    <contour>
      <point x="171" y="347" type="qcurve" name="ih01"/>
      <point x="391" y="609" type="line" name="sh02"/>
      <point x="183" y="609" type="line" name="sh04"/>
      <point x="175" y="549" type="line" name="sh03"/>
      <point x="135" y="549" type="line" name="ih02"/>
      <point x="149" y="650" type="line" name="sh05"/>
      <point x="472" y="650" type="line" name="sh01"/>
      <point x="260" y="404" type="line" name="sh06"/>
      <point x="300" y="401"/>
      <point x="366" y="368" name="fh01"/>
      <point x="388.5" y="341.0" type="qcurve" smooth="yes" name="inserted"/>
      <point x="411" y="314"/>
      <point x="432" y="243"/>
      <point x="426" y="201" type="qcurve" name="dh02"/>
      <point x="420" y="158"/>
      <point x="375" y="82" name="fh02"/>
      <point x="342.5" y="53.5" type="qcurve" smooth="yes" name="inserted"/>
      <point x="310" y="25" name="fh03"/>
      <point x="229" y="-8"/>
      <point x="186" y="-8" type="qcurve" name="ab01"/>
      <point x="140" y="-8"/>
      <point x="67" y="29" name="fh04"/>
      <point x="42" y="60" type="qcurve" name="dh01"/>
      <point x="77" y="91" type="line" name="sh07"/>
      <point x="95" y="65" name="fh05"/>
      <point x="153" y="33"/>
      <point x="190" y="33" type="qcurve" name="sv01"/>
      <point x="225" y="33"/>
      <point x="291" y="60" name="fh06"/>
      <point x="317.0" y="83.0" type="qcurve" smooth="yes" name="inserted"/>
      <point x="343" y="106"/>
      <point x="379" y="167" name="fv01"/>
      <point x="384" y="201" type="qcurve" name="sh08"/>
      <point x="389" y="235"/>
      <point x="370" y="296" name="fh07"/>
      <point x="350.0" y="319.0" type="qcurve" smooth="yes" name="inserted"/>
      <point x="330" y="342" name="fh08"/>
      <point x="272" y="368"/>
      <point x="237" y="368" type="qcurve" name="iv01"/>
      <point x="220" y="368"/>
      <point x="187" y="357"/>
    </contour>
  </outline>
</glyph>
<glyph name="five" format="1">
  <advance width="543"/>
  <unicode hex="0035"/>
  <outline>
    <contour>
      <point x="476" y="650" type="line" name="sh02"/>
      <point x="462" y="549" type="line" name="sh01"/>
      <point x="422" y="549" type="line" name="sh03"/>
      <point x="430" y="609" type="line" name="sh04"/>
      <point x="225" y="609" type="line" name="sh06"/>
      <point x="195" y="392" type="line" name="sh05"/>
      <point x="212" y="399"/>
      <point x="247" y="407"/>
      <point x="266" y="407" type="qcurve" name="iv01"/>
      <point x="309" y="407"/>
      <point x="381" y="375" name="fh01"/>
      <point x="406.0" y="347.0" type="qcurve" smooth="yes" name="inserted"/>
      <point x="431" y="319" name="fh02"/>
      <point x="454" y="244"/>
      <point x="448" y="201" type="qcurve" name="dh02"/>
      <point x="442" y="158" name="fh03"/>
      <point x="397" y="82" name="fh04"/>
      <point x="364.0" y="53.5" type="qcurve" smooth="yes" name="inserted"/>
      <point x="331" y="25" name="fh05"/>
      <point x="250" y="-8"/>
      <point x="207" y="-8" type="qcurve" name="ab01"/>
      <point x="165" y="-8"/>
      <point x="96" y="23"/>
      <point x="72" y="50" type="qcurve" name="dh01"/>
      <point x="107" y="78" type="line" name="sv01"/>
      <point x="125" y="57" name="fh06"/>
      <point x="179" y="33"/>
      <point x="212" y="33" type="qcurve" name="sv02"/>
      <point x="247" y="33"/>
      <point x="313" y="60"/>
      <point x="339.0" y="83.0" type="qcurve" smooth="yes" name="inserted"/>
      <point x="365" y="106"/>
      <point x="401" y="167"/>
      <point x="406" y="201" type="qcurve" name="sh07"/>
      <point x="410" y="235"/>
      <point x="392" y="295" name="fh07"/>
      <point x="372.0" y="317.5" type="qcurve" smooth="yes" name="inserted"/>
      <point x="352" y="340" name="fh08"/>
      <point x="294" y="366"/>
      <point x="259" y="366" type="qcurve" name="sv03"/>
      <point x="224" y="366"/>
      <point x="162" y="342" name="fh09"/>
      <point x="142" y="321" type="qcurve" name="sv04"/>
      <point x="152" y="390" type="line" name="ih01"/>
      <point x="189" y="650" type="line" name="sh08"/>
    </contour>
  </outline>
</glyph>
<glyph name="six" format="1">
  <advance width="520"/>
  <unicode hex="0036"/>
  <outline>
    <contour>
      <point x="75" y="199" type="qcurve" name="sh01"/>
      <point x="70" y="164"/>
      <point x="88" y="104" name="fh01"/>
      <point x="107.5" y="81.5" type="qcurve" smooth="yes" name="inserted"/>
      <point x="127" y="59" name="fh02"/>
      <point x="183" y="33"/>
      <point x="218" y="33" type="qcurve" name="sv01"/>
      <point x="252" y="33" name="fv01"/>
      <point x="317" y="59" name="fh03"/>
      <point x="343.5" y="81.5" type="qcurve" smooth="yes" name="inserted"/>
      <point x="370" y="104" name="fh04"/>
      <point x="406" y="164"/>
      <point x="411" y="199" type="qcurve" name="sh02"/>
      <point x="415" y="233"/>
      <point x="397" y="294" name="fh05"/>
      <point x="377.0" y="317.0" type="qcurve" smooth="yes" name="inserted"/>
      <point x="357" y="340" name="fh06"/>
      <point x="299" y="366"/>
      <point x="265" y="366" type="qcurve" name="sv03"/>
      <point x="230" y="366"/>
      <point x="166" y="340" name="fh07"/>
      <point x="140.5" y="317.0" type="qcurve" smooth="yes" name="inserted"/>
      <point x="115" y="294" name="fh08"/>
      <point x="80" y="233"/>
    </contour>
    <contour>
      <point x="32" y="195" type="qcurve" name="dh01"/>
      <point x="42" y="267"/>
      <point x="121" y="392" name="fh09"/>
      <point x="177.0" y="446.5" type="qcurve" smooth="yes" name="inserted"/>
      <point x="233" y="501" name="fh10"/>
      <point x="364" y="594"/>
      <point x="426" y="635" type="qcurve" name="sh03"/>
      <point x="431" y="627"/>
      <point x="442" y="609"/>
      <point x="448" y="601" type="qcurve" name="ih01"/>
      <point x="331" y="531" name="fh11"/>
      <point x="191" y="404" name="fh12"/>
      <point x="158" y="358" type="qcurve" name="ih02"/>
      <point x="180" y="380"/>
      <point x="239" y="407"/>
      <point x="271" y="407" type="qcurve" name="sv02"/>
      <point x="314" y="407"/>
      <point x="386" y="374" name="fh13"/>
      <point x="410.5" y="346.0" type="qcurve" smooth="yes" name="inserted"/>
      <point x="435" y="318" name="fh14"/>
      <point x="458" y="242"/>
      <point x="452" y="199" type="qcurve" name="dh02"/>
      <point x="446" y="156"/>
      <point x="402" y="81" name="fh15"/>
      <point x="369.5" y="53.0" type="qcurve" smooth="yes" name="inserted"/>
      <point x="337" y="25" name="fh16"/>
      <point x="255" y="-8"/>
      <point x="212" y="-8" type="qcurve" name="ab01"/>
      <point x="170" y="-8"/>
      <point x="99" y="24" name="fh17"/>
      <point x="74.5" y="51.5" type="qcurve" smooth="yes" name="inserted"/>
      <point x="50" y="79" name="fh18"/>
      <point x="27" y="153"/>
    </contour>
  </outline>
</glyph>
<glyph name="seven" format="1">
  <advance width="469"/>
  <unicode hex="0037"/>
  <outline>
    <contour>
      <point x="465" y="650" type="line" name="dh02"/>
      <point x="82" y="0" type="line" name="sh01"/>
      <point x="33" y="0" type="line" name="sh03"/>
      <point x="393" y="609" type="line" name="sh02"/>
      <point x="93" y="609" type="line" name="sh05"/>
      <point x="85" y="549" type="line" name="sh04"/>
      <point x="45" y="549" type="line" name="dh01"/>
      <point x="59" y="650" type="line" name="sh06"/>
    </contour>
  </outline>
</glyph>
<glyph name="colon" format="1">
  <advance width="175"/>
  <unicode hex="003A"/>
  <outline>
    <contour>
      <point x="69" y="283" type="qcurve" name="sh01"/>
      <point x="71" y="297"/>
      <point x="94" y="316"/>
      <point x="107" y="316" type="qcurve" name="av01"/>
      <point x="119" y="316"/>
      <point x="136" y="297"/>
      <point x="134" y="283" type="qcurve" name="sh02"/>
      <point x="132" y="269"/>
      <point x="110" y="250"/>
      <point x="97" y="250" type="qcurve" name="sv01"/>
      <point x="84" y="250"/>
      <point x="67" y="269"/>
    </contour>
    <contour>
      <point x="34" y="33" type="qcurve" name="ah01"/>
      <point x="36" y="47"/>
      <point x="59" y="66"/>
      <point x="72" y="66" type="qcurve" name="sv02"/>
      <point x="84" y="66"/>
      <point x="101" y="47"/>
      <point x="99" y="33" type="qcurve" name="sh03"/>
      <point x="97" y="19"/>
      <point x="75" y="0"/>
      <point x="62" y="0" type="qcurve" name="ab01"/>
      <point x="49" y="0"/>
      <point x="32" y="19"/>
    </contour>
  </outline>
</glyph>
<glyph name="semicolon" format="1">
  <advance width="201"/>
  <unicode hex="003B"/>
  <outline>
    <contour>
      <point x="104" y="283" type="qcurve" name="sh03"/>
      <point x="106" y="297"/>
      <point x="128" y="316"/>
      <point x="141" y="316" type="qcurve" name="av01"/>
      <point x="154" y="316"/>
      <point x="171" y="297"/>
      <point x="169" y="283" type="qcurve" name="sh02"/>
      <point x="167" y="269"/>
      <point x="145" y="250"/>
      <point x="132" y="250" type="qcurve" name="sv01"/>
      <point x="119" y="250"/>
      <point x="102" y="269"/>
    </contour>
    <contour>
      <point x="125" y="86" type="line" name="sh01"/>
      <point x="96" y="34"/>
      <point x="39" y="-68"/>
      <point x="10" y="-120" type="qcurve" name="sh04"/>
      <point x="-28" y="-120" type="line" name="ah01"/>
      <point x="-2" y="-68"/>
      <point x="50" y="34"/>
      <point x="77" y="86" type="qcurve" name="sh05"/>
    </contour>
  </outline>
</glyph>
<glyph name="at" format="1">
  <advance width="990"/>
  <unicode hex="0040"/>
  <outline>
    <contour>
      <point x="332" y="188" type="qcurve" name="sh02"/>
      <point x="327" y="156"/>
      <point x="343" y="100" name="fh01"/>
      <point x="361.0" y="79.0" type="qcurve" smooth="yes" name="inserted"/>
      <point x="379" y="58" name="fh02"/>
      <point x="433" y="34"/>
      <point x="466" y="34" type="qcurve" name="sv01"/>
      <point x="499" y="34"/>
      <point x="558" y="58" name="fh03"/>
      <point x="582.0" y="79.0" type="qcurve" smooth="yes" name="inserted"/>
      <point x="606" y="100"/>
      <point x="637" y="156"/>
      <point x="642" y="188" type="qcurve" name="sh05"/>
      <point x="647" y="220" name="fh04"/>
      <point x="631" y="277" name="fh05"/>
      <point x="613.0" y="298.0" type="qcurve" smooth="yes" name="inserted"/>
      <point x="595" y="319" name="fh06"/>
      <point x="542" y="343"/>
      <point x="509" y="343" type="qcurve" name="sv02"/>
      <point x="476" y="343"/>
      <point x="417" y="319"/>
      <point x="393.0" y="298.0" type="qcurve" smooth="yes" name="inserted"/>
      <point x="369" y="277" name="fh07"/>
      <point x="337" y="220"/>
    </contour>
    <contour>
      <point x="894" y="188" type="qcurve" name="sh01"/>
      <point x="883" y="131"/>
      <point x="843" y="58" name="fh08"/>
      <point x="817.5" y="37.0" type="qcurve" smooth="yes" name="inserted"/>
      <point x="792" y="16" name="fh09"/>
      <point x="736" y="0"/>
      <point x="710" y="0" type="qcurve" name="ab02"/>
      <point x="620" y="0" type="line"/>
      <point x="626" y="40" type="line" name="sh04"/>
      <point x="628" y="52"/>
      <point x="631" y="75"/>
      <point x="633" y="86" type="qcurve"/>
      <point x="624" y="69" name="fh10"/>
      <point x="590" y="35" name="fh11"/>
      <point x="567.5" y="22.0" type="qcurve" smooth="yes" name="inserted"/>
      <point x="545" y="9"/>
      <point x="490" y="-7"/>
      <point x="460" y="-7" type="qcurve" name="ab01"/>
      <point x="419" y="-7"/>
      <point x="351" y="24" name="fh12"/>
      <point x="328.0" y="50.0" type="qcurve" smooth="yes" name="inserted"/>
      <point x="305" y="76" name="fh13"/>
      <point x="284" y="147"/>
      <point x="290" y="188" type="qcurve" name="ih01"/>
      <point x="296" y="228"/>
      <point x="337" y="299" name="fh14"/>
      <point x="367.5" y="325.5" type="qcurve" smooth="yes" name="inserted"/>
      <point x="398" y="352" name="fh15"/>
      <point x="474" y="383"/>
      <point x="515" y="383" type="qcurve" name="at01"/>
      <point x="544" y="383"/>
      <point x="593" y="366"/>
      <point x="612.0" y="352.5" type="qcurve" smooth="yes" name="inserted"/>
      <point x="631" y="339" name="fh16"/>
      <point x="655" y="305"/>
      <point x="660" y="287" type="qcurve" name="sh06"/>
      <point x="664" y="309"/>
      <point x="672" y="353"/>
      <point x="677" y="375" type="qcurve" name="at02"/>
      <point x="711" y="375" type="line" name="sh07"/>
      <point x="664" y="40" type="line" name="sh03"/>
      <point x="719" y="40" type="line" name="sv03"/>
      <point x="768" y="40" name="fh17"/>
      <point x="838" y="110" name="fh18"/>
      <point x="852" y="188" type="qcurve" name="sh08"/>
      <point x="863" y="264"/>
      <point x="825" y="398" name="fh19"/>
      <point x="782.5" y="447.5" type="qcurve" smooth="yes" name="inserted"/>
      <point x="740" y="497" name="fh20"/>
      <point x="615" y="554"/>
      <point x="540" y="554" type="qcurve" name="sv05"/>
      <point x="464" y="554"/>
      <point x="323" y="497" name="fv01"/>
      <point x="266.5" y="447.5" type="qcurve" smooth="yes" name="inserted"/>
      <point x="210" y="398" name="fh21"/>
      <point x="134" y="264"/>
      <point x="123" y="188" type="qcurve" name="sh09"/>
      <point x="113" y="112"/>
      <point x="152" y="-20" name="fh22"/>
      <point x="194.5" y="-69.5" type="qcurve" smooth="yes" name="inserted"/>
      <point x="237" y="-119" name="fh23"/>
      <point x="362" y="-176" name="fh24"/>
      <point x="437" y="-176" type="qcurve" name="sv07"/>
      <point x="498" y="-176" name="fh25"/>
      <point x="611" y="-140" name="fh26"/>
      <point x="662" y="-108" type="qcurve" name="sv08"/>
      <point x="683" y="-138" type="line" name="ih02"/>
      <point x="628" y="-176"/>
      <point x="497" y="-217"/>
      <point x="431" y="-217" type="qcurve" name="sv06"/>
      <point x="347" y="-217"/>
      <point x="208" y="-153" name="fh27"/>
      <point x="161.0" y="-98.0" type="qcurve" smooth="yes" name="inserted"/>
      <point x="114" y="-43" name="fh28"/>
      <point x="70" y="105"/>
      <point x="82" y="189" type="qcurve" name="ah01"/>
      <point x="94" y="273" name="fh29"/>
      <point x="178" y="421" name="fh30"/>
      <point x="241.0" y="476.0" type="qcurve" smooth="yes" name="inserted"/>
      <point x="304" y="531" name="fh31"/>
      <point x="462" y="595"/>
      <point x="546" y="595" type="qcurve" name="sv04"/>
      <point x="630" y="595"/>
      <point x="769" y="531" name="fh32"/>
      <point x="816.0" y="476.0" type="qcurve" smooth="yes" name="inserted"/>
      <point x="863" y="421" name="fh33"/>
      <point x="906" y="273"/>
    </contour>
  </outline>
</glyph>
<glyph name="A" format="1">
  <advance width="812"/>
  <unicode hex="0041"/>
  <outline>
    <contour>
      <point x="40" y="40" type="line" name="sh02"/>
      <point x="117" y="40" type="line" name="sh01"/>
      <point x="215" y="214"/>
      <point x="411" y="558" name="fh01"/>
      <point x="508" y="732" type="qcurve" name="ah01"/>
      <point x="558" y="558"/>
      <point x="655" y="214"/>
      <point x="704" y="40" type="qcurve" name="sh03"/>
      <point x="782" y="40" type="line" name="sh04"/>
      <point x="777" y="0" type="line"/>
      <point x="584" y="0" type="line" name="sv01"/>
      <point x="589" y="40" type="line" name="sh06"/>
      <point x="662" y="40" type="line" name="sh05"/>
      <point x="643" y="105"/>
      <point x="607" y="234"/>
      <point x="588" y="300" type="qcurve" name="ih01"/>
      <point x="307" y="300" type="line" name="ih02"/>
      <point x="270" y="234"/>
      <point x="198" y="105" name="fh02"/>
      <point x="160" y="40" type="qcurve" name="sh08"/>
      <point x="233" y="40" type="line" name="sh09"/>
      <point x="228" y="0" type="line"/>
      <point x="35" y="0" type="line" name="ab01"/>
    </contour>
    <contour>
      <point x="500" y="611" type="line"/>
      <point x="495" y="639" type="line" name="sh07"/>
      <point x="494" y="637"/>
      <point x="489" y="629"/>
      <point x="487" y="624" type="qcurve"/>
      <point x="485.5" y="621.0" name="inserted"/>
      <point x="482.5" y="614.5"/>
      <point x="481" y="611" type="qcurve"/>
      <point x="467" y="585"/>
      <point x="432" y="520"/>
      <point x="411.5" y="484.5" type="qcurve" smooth="yes" name="inserted"/>
      <point x="391" y="449"/>
      <point x="349" y="375"/>
      <point x="330" y="340" type="qcurve" name="ih03"/>
      <point x="577" y="340" type="line" name="ih04"/>
    </contour>
  </outline>
</glyph>
<glyph name="D" format="1">
  <advance width="632"/>
  <unicode hex="0044"/>
  <outline>
    <contour>
      <point x="40" y="40" type="line" name="sh01"/>
      <point x="103" y="40" type="line" name="dh01"/>
      <point x="190" y="660" type="line" name="sh02"/>
      <point x="127" y="660" type="line" name="sh03"/>
      <point x="133" y="700" type="line" name="at01"/>
      <point x="343" y="700" type="line"/>
      <point x="415" y="700" name="fh01"/>
      <point x="536" y="651" name="fh02"/>
      <point x="577.5" y="605.5" type="qcurve" smooth="yes" name="inserted"/>
      <point x="619" y="560" name="fh03"/>
      <point x="657" y="430"/>
      <point x="646" y="350" type="qcurve" name="dh02"/>
      <point x="637" y="291"/>
      <point x="579" y="167" name="fh04"/>
      <point x="526.0" y="116.0" type="qcurve" smooth="yes" name="inserted"/>
      <point x="473" y="65" name="fh05"/>
      <point x="317" y="0"/>
      <point x="211" y="0" type="qcurve"/>
      <point x="35" y="0" type="line" name="ab01"/>
    </contour>
    <contour>
      <point x="232" y="660" type="line" name="sh05"/>
      <point x="144" y="40" type="line" name="sh04"/>
      <point x="231" y="40" type="line"/>
      <point x="314" y="40"/>
      <point x="446" y="93" name="fh06"/>
      <point x="493.0" y="136.5" type="qcurve" smooth="yes" name="inserted"/>
      <point x="540" y="180" name="fh07"/>
      <point x="597" y="291"/>
      <point x="605" y="350" type="qcurve" name="sh06"/>
      <point x="615" y="421"/>
      <point x="582" y="536" name="fh08"/>
      <point x="545.0" y="576.5" type="qcurve" smooth="yes" name="inserted"/>
      <point x="508" y="617" name="fh09"/>
      <point x="401" y="660"/>
      <point x="337" y="660" type="qcurve"/>
    </contour>
  </outline>
</glyph>
<glyph name="J" format="1">
  <advance width="277"/>
  <unicode hex="004A"/>
  <outline>
    <contour>
      <point x="93" y="700" type="line" name="at01"/>
      <point x="300" y="700" type="line" name="sh01"/>
      <point x="214" y="90" type="line" name="dh02"/>
      <point x="206" y="34" name="fh01"/>
      <point x="162" y="-51" name="fh02"/>
      <point x="130.0" y="-80.5" type="qcurve" smooth="yes" name="inserted"/>
      <point x="98" y="-110" name="fh03"/>
      <point x="19" y="-142"/>
      <point x="-24" y="-143" type="qcurve" name="sh02"/>
      <point x="-19" y="-103" type="line" name="sv01"/>
      <point x="17" y="-101"/>
      <point x="81" y="-73" name="fh04"/>
      <point x="106.5" y="-48.0" type="qcurve" smooth="yes" name="inserted"/>
      <point x="132" y="-23" name="fh05"/>
      <point x="167" y="48" name="fh06"/>
      <point x="173" y="93" type="qcurve" name="dh01"/>
      <point x="253" y="660" type="line" name="sh03"/>
      <point x="87" y="660" type="line" name="sh04"/>
    </contour>
  </outline>
</glyph>
<glyph name="K" format="1">
  <advance width="686"/>
  <unicode hex="004B"/>
  <outline>
    <contour>
      <point x="463" y="40" type="line" name="sh03"/>
      <point x="523" y="40" type="line" name="sh02"/>
      <point x="466" y="128" name="sh01"/>
      <point x="352" y="305"/>
      <point x="295" y="394" type="qcurve" name="sh04"/>
      <point x="196" y="311" type="line" name="ih01"/>
      <point x="187" y="243"/>
      <point x="169" y="108"/>
      <point x="159" y="40" type="qcurve" name="sh05"/>
      <point x="241" y="40" type="line" name="sh07"/>
      <point x="236" y="0" type="line"/>
      <point x="35" y="0" type="line" name="ab01"/>
      <point x="40" y="40" type="line" name="sh08"/>
      <point x="117" y="40" type="line" name="dh01"/>
      <point x="204" y="660" type="line" name="sh09"/>
      <point x="127" y="660" type="line" name="sh10"/>
      <point x="133" y="700" type="line" name="at01"/>
      <point x="326" y="700" type="line"/>
      <point x="321" y="660" type="line" name="sh11"/>
      <point x="246" y="660" type="line" name="sh06"/>
      <point x="207" y="386" type="line"/>
      <point x="206" y="378"/>
      <point x="203" y="364"/>
      <point x="201" y="356" type="qcurve" name="ih02"/>
      <point x="222" y="377" type="line" name="fh01"/>
      <point x="558" y="660" type="line" name="sh12"/>
      <point x="505" y="660" type="line" name="sh13"/>
      <point x="511" y="700" type="line" name="sv01"/>
      <point x="704" y="700" type="line"/>
      <point x="698" y="660" type="line" name="sh16"/>
      <point x="612" y="660" type="line" name="sh15"/>
      <point x="327" y="421" type="line" name="sh17"/>
      <point x="390" y="325"/>
      <point x="512" y="135" name="dh02"/>
      <point x="574" y="40" type="qcurve" name="sh14"/>
      <point x="656" y="40" type="line" name="sh18"/>
      <point x="651" y="0" type="line"/>
      <point x="458" y="0" type="line" name="sv02"/>
    </contour>
  </outline>
</glyph>
<glyph name="M" format="1">
  <advance width="967"/>
  <unicode hex="004D"/>
  <outline>
    <contour>
      <point x="922" y="700" type="qcurve" name="sh02"/>
      <point x="1027" y="700" type="line"/>
      <point x="1021" y="660" type="line" name="sh03"/>
      <point x="940" y="660" type="line" name="sh01"/>
      <point x="853" y="40" type="line" name="dh02"/>
      <point x="937" y="40" type="line" name="sh04"/>
      <point x="932" y="0" type="line"/>
      <point x="731" y="0" type="line" name="sv01"/>
      <point x="736" y="40" type="line" name="sh06"/>
      <point x="811" y="40" type="line" name="sh05"/>
      <point x="887" y="575" type="line" name="sh07"/>
      <point x="887" y="576"/>
      <point x="889" y="588"/>
      <point x="890.5" y="594.5" type="qcurve" smooth="yes" name="inserted"/>
      <point x="892" y="601"/>
      <point x="894" y="613" name="mv01"/>
      <point x="894" y="615" type="qcurve" name="ih01"/>
      <point x="890" y="610"/>
      <point x="880" y="597"/>
      <point x="873" y="589" type="qcurve"/>
      <point x="855" y="569"/>
      <point x="803" y="511"/>
      <point x="772.0" y="477.0" type="qcurve" smooth="yes" name="inserted"/>
      <point x="741" y="443"/>
      <point x="672" y="367"/>
      <point x="637.5" y="329.0" type="qcurve" smooth="yes" name="inserted"/>
      <point x="603" y="291"/>
      <point x="536" y="218"/>
      <point x="508" y="187" type="qcurve" name="ih02"/>
      <point x="452" y="277"/>
      <point x="373" y="403"/>
      <point x="344.0" y="449.5" type="qcurve" smooth="yes" name="inserted"/>
      <point x="315" y="496"/>
      <point x="272" y="564"/>
      <point x="252" y="596" type="qcurve"/>
      <point x="241" y="615" type="line" name="sh10"/>
      <point x="240" y="604"/>
      <point x="239" y="585"/>
      <point x="238" y="575" type="qcurve" name="sh09"/>
      <point x="163" y="40" type="line" name="sh08"/>
      <point x="241" y="40" type="line" name="sh11"/>
      <point x="236" y="0" type="line"/>
      <point x="35" y="0" type="line" name="ab01"/>
      <point x="40" y="40" type="line" name="sh12"/>
      <point x="121" y="40" type="line" name="dh01"/>
      <point x="208" y="660" type="line" name="sh13"/>
      <point x="127" y="660" type="line" name="sh14"/>
      <point x="133" y="700" type="line" name="at01"/>
      <point x="238" y="700" type="line" name="sh15"/>
      <point x="252" y="678"/>
      <point x="316" y="575" name="fh01"/>
      <point x="356.5" y="510.5" type="qcurve" smooth="yes" name="inserted"/>
      <point x="397" y="446"/>
      <point x="482" y="310" name="fh02"/>
      <point x="517" y="255" type="qcurve" name="sh16"/>
      <point x="619" y="366" name="fh03"/>
      <point x="820" y="589"/>
    </contour>
  </outline>
</glyph>
<glyph name="O" format="1">
  <advance width="786"/>
  <unicode hex="004F"/>
  <outline>
    <contour>
      <point x="85" y="349" type="qcurve" name="dh01"/>
      <point x="95" y="423"/>
      <point x="170" y="554" name="fh01"/>
      <point x="225.0" y="602.5" type="qcurve" smooth="yes" name="inserted"/>
      <point x="280" y="651" name="fh02"/>
      <point x="418" y="708"/>
      <point x="492" y="708" type="qcurve" name="at01"/>
      <point x="566" y="708"/>
      <point x="689" y="651" name="fh03"/>
      <point x="731.0" y="602.5" type="qcurve" smooth="yes" name="inserted"/>
      <point x="773" y="554" name="fh04"/>
      <point x="811" y="423"/>
      <point x="801" y="349" type="qcurve" name="dh02"/>
      <point x="790" y="275"/>
      <point x="715" y="145" name="fh05"/>
      <point x="659.5" y="96.5" type="qcurve" smooth="yes" name="inserted"/>
      <point x="604" y="48" name="fh06"/>
      <point x="466" y="-8"/>
      <point x="392" y="-8" type="qcurve" name="ab01"/>
      <point x="318" y="-8"/>
      <point x="196" y="48" name="fh07"/>
      <point x="154.0" y="96.5" type="qcurve" smooth="yes" name="inserted"/>
      <point x="112" y="145" name="fh08"/>
      <point x="74" y="275"/>
    </contour>
    <contour>
      <point x="127" y="348" type="qcurve" name="sh01"/>
      <point x="118" y="282"/>
      <point x="151" y="167" name="fh09"/>
      <point x="187.5" y="124.5" type="qcurve" smooth="yes" name="inserted"/>
      <point x="224" y="82" name="fh10"/>
      <point x="331" y="32"/>
      <point x="396" y="32" type="qcurve" name="sv01"/>
      <point x="461" y="32"/>
      <point x="584" y="82" name="fv01"/>
      <point x="633.5" y="125.0" type="qcurve" smooth="yes" name="inserted"/>
      <point x="683" y="168" name="fh11"/>
      <point x="750" y="283"/>
      <point x="759" y="349" type="qcurve" name="sh02"/>
      <point x="768" y="415"/>
      <point x="734" y="531" name="fh12"/>
      <point x="697.0" y="574.5" type="qcurve" smooth="yes" name="inserted"/>
      <point x="660" y="618" name="fh13"/>
      <point x="552" y="668"/>
      <point x="487" y="668" type="qcurve" name="sv02"/>
      <point x="422" y="668"/>
      <point x="300" y="617" name="fh14"/>
      <point x="251.0" y="573.5" type="qcurve" smooth="yes" name="inserted"/>
      <point x="202" y="530" name="fh15"/>
      <point x="136" y="414" name="fv02"/>
    </contour>
  </outline>
</glyph>
<glyph name="P" format="1">
  <advance width="495"/>
  <unicode hex="0050"/>
  <outline>
    <contour>
      <point x="40" y="40" type="line" name="sh01"/>
      <point x="101" y="40" type="line" name="dh01"/>
      <point x="188" y="660" type="line" name="sh02"/>
      <point x="127" y="660" type="line" name="sh03"/>
      <point x="133" y="700" type="line" name="at01"/>
      <point x="344" y="700" type="line"/>
      <point x="375" y="700"/>
      <point x="447" y="680" name="fh01"/>
      <point x="476.0" y="658.0" type="qcurve" smooth="yes" name="inserted"/>
      <point x="505" y="636" name="fh02"/>
      <point x="540" y="566"/>
      <point x="533" y="517" type="qcurve" name="dh02"/>
      <point x="520" y="431" name="fh03"/>
      <point x="396" y="329" name="fh04"/>
      <point x="293" y="329" type="qcurve"/>
      <point x="183" y="329" type="line" name="ih01"/>
      <point x="142" y="40" type="line" name="sh04"/>
      <point x="241" y="40" type="line" name="sh06"/>
      <point x="236" y="0" type="line"/>
      <point x="35" y="0" type="line" name="ab01"/>
    </contour>
    <contour>
      <point x="189" y="370" type="line" name="ih02"/>
      <point x="292" y="370" type="line"/>
      <point x="344" y="370"/>
      <point x="417" y="398" name="fh05"/>
      <point x="440.5" y="420.0" type="qcurve" smooth="yes" name="inserted"/>
      <point x="464" y="442"/>
      <point x="488" y="493"/>
      <point x="491" y="517" type="qcurve" name="sh07"/>
      <point x="495" y="545"/>
      <point x="475" y="597" name="fh06"/>
      <point x="454.0" y="617.0" type="qcurve" smooth="yes" name="inserted"/>
      <point x="433" y="637" name="fh07"/>
      <point x="372" y="660"/>
      <point x="334" y="660" type="qcurve"/>
      <point x="230" y="660" type="line" name="sh05"/>
    </contour>
  </outline>
</glyph>
<glyph name="S" format="1">
  <advance width="478"/>
  <unicode hex="0053"/>
  <outline>
    <contour>
      <point x="48" y="76" type="qcurve" name="sh02"/>
      <point x="62" y="182" type="line" name="sh01"/>
      <point x="102" y="182" type="line" name="sh03"/>
      <point x="89" y="92" type="line" name="sh04"/>
      <point x="114" y="67" name="fh01"/>
      <point x="189" y="32"/>
      <point x="244" y="32" type="qcurve" name="sv01"/>
      <point x="277" y="32"/>
      <point x="343" y="53" name="fv01"/>
      <point x="369.5" y="72.5" type="qcurve" smooth="yes" name="inserted"/>
      <point x="396" y="92" name="fh02"/>
      <point x="433" y="148" name="fh03"/>
      <point x="438" y="184" type="qcurve" name="sh05"/>
      <point x="444" y="228"/>
      <point x="423" y="284"/>
      <point x="401.0" y="302.0" type="qcurve" smooth="yes" name="inserted"/>
      <point x="379" y="320"/>
      <point x="320" y="342" name="iv01"/>
      <point x="289.0" y="351.5" type="qcurve" smooth="yes" name="inserted"/>
      <point x="258" y="361"/>
      <point x="198" y="383" name="fh04"/>
      <point x="175.0" y="401.0" type="qcurve" smooth="yes" name="inserted"/>
      <point x="152" y="419" name="fh05"/>
      <point x="128" y="474"/>
      <point x="132" y="517" type="qcurve" name="dh01"/>
      <point x="135" y="550" name="fh06"/>
      <point x="164" y="617" name="fh07"/>
      <point x="190.0" y="643.5" type="qcurve" smooth="yes" name="inserted"/>
      <point x="216" y="670" name="fh08"/>
      <point x="291" y="704"/>
      <point x="341" y="704" type="qcurve" name="at01"/>
      <point x="375" y="704"/>
      <point x="459" y="686"/>
      <point x="493" y="654" type="qcurve" name="sh06"/>
      <point x="478" y="546" type="line" name="ih01"/>
      <point x="438" y="546" type="line" name="sh07"/>
      <point x="451" y="634" type="line" name="sh08"/>
      <point x="433" y="646" name="fh09"/>
      <point x="375" y="664"/>
      <point x="334" y="664" type="qcurve" name="sv02"/>
      <point x="299" y="664"/>
      <point x="244" y="641" name="fh10"/>
      <point x="223.5" y="621.5" type="qcurve" smooth="yes" name="inserted"/>
      <point x="203" y="602" name="fh11"/>
      <point x="179" y="551"/>
      <point x="175" y="524" type="qcurve" name="sh09"/>
      <point x="170" y="488"/>
      <point x="194" y="442" name="fh12"/>
      <point x="216.5" y="427.0" type="qcurve" smooth="yes" name="inserted"/>
      <point x="239" y="412"/>
      <point x="299" y="392" name="iv02"/>
      <point x="330.5" y="382.0" type="qcurve" smooth="yes" name="inserted"/>
      <point x="362" y="372"/>
      <point x="421" y="345" name="fh13"/>
      <point x="443.0" y="323.5" type="qcurve" smooth="yes" name="inserted"/>
      <point x="465" y="302" name="fh14"/>
      <point x="487" y="236"/>
      <point x="481" y="186" type="qcurve" name="dh02"/>
      <point x="475" y="142"/>
      <point x="432" y="70" name="fh15"/>
      <point x="399.5" y="44.5" type="qcurve" smooth="yes" name="inserted"/>
      <point x="367" y="19"/>
      <point x="286" y="-8"/>
      <point x="243" y="-8" type="qcurve" name="ab01"/>
      <point x="204" y="-8"/>
      <point x="140" y="8"/>
      <point x="115.0" y="20.5" type="qcurve" smooth="yes" name="inserted"/>
      <point x="90" y="33"/>
      <point x="57" y="63"/>
    </contour>
  </outline>
</glyph>
<glyph name="U" format="1">
  <advance width="696"/>
  <unicode hex="0055"/>
  <outline>
    <contour>
      <point x="134" y="700" type="line" name="at01"/>
      <point x="335" y="700" type="line"/>
      <point x="330" y="660" type="line" name="sh02"/>
      <point x="247" y="660" type="line" name="sh01"/>
      <point x="187" y="229" type="line" name="sh03"/>
      <point x="180" y="181"/>
      <point x="198" y="108" name="fh01"/>
      <point x="220.5" y="83.0" type="qcurve" smooth="yes" name="inserted"/>
      <point x="243" y="58" name="fh02"/>
      <point x="310" y="32"/>
      <point x="353" y="32" type="qcurve" name="sv01"/>
      <point x="395" y="32"/>
      <point x="470" y="58" name="fh03"/>
      <point x="499.5" y="83.0" type="qcurve" smooth="yes" name="inserted"/>
      <point x="529" y="108" name="fh04"/>
      <point x="568" y="181"/>
      <point x="575" y="229" type="qcurve" name="sh05"/>
      <point x="636" y="660" type="line" name="sh04"/>
      <point x="553" y="660" type="line" name="sh06"/>
      <point x="559" y="700" type="line" name="sv02"/>
      <point x="760" y="700" type="line"/>
      <point x="754" y="660" type="line" name="sh07"/>
      <point x="677" y="660" type="line" name="dh02"/>
      <point x="616" y="226" type="line" name="sh08"/>
      <point x="608" y="169" name="fh05"/>
      <point x="560" y="81" name="fh06"/>
      <point x="524.0" y="51.5" type="qcurve" smooth="yes" name="inserted"/>
      <point x="488" y="22" name="fh07"/>
      <point x="398" y="-8"/>
      <point x="348" y="-8" type="qcurve" name="ab01"/>
      <point x="297" y="-8"/>
      <point x="215" y="22" name="fh08"/>
      <point x="187.5" y="51.5" type="qcurve" smooth="yes" name="inserted"/>
      <point x="160" y="81" name="fh09"/>
      <point x="136" y="169"/>
      <point x="144" y="226" type="qcurve" name="sh09"/>
      <point x="205" y="660" type="line" name="dh01"/>
      <point x="128" y="660" type="line" name="sh10"/>
    </contour>
  </outline>
</glyph>
<glyph name="W" format="1">
  <advance width="1203"/>
  <unicode hex="0057"/>
  <outline>
    <contour>
      <point x="137" y="700" type="line" name="at01"/>
      <point x="338" y="700" type="line"/>
      <point x="333" y="660" type="line" name="sh03"/>
      <point x="258" y="660" type="line" name="sh02"/>
      <point x="299" y="516"/>
      <point x="378" y="232"/>
      <point x="421" y="89" type="qcurve"/>
      <point x="425" y="61" type="line" name="sh04"/>
      <point x="473" y="161" name="fh01"/>
      <point x="591" y="359"/>
      <point x="646" y="457" type="qcurve" name="ih01"/>
      <point x="632" y="508"/>
      <point x="603" y="609"/>
      <point x="588" y="660" type="qcurve" name="sh06"/>
      <point x="504" y="660" type="line" name="sh07"/>
      <point x="510" y="700" type="line" name="sv01"/>
      <point x="711" y="700" type="line"/>
      <point x="705" y="660" type="line" name="sh09"/>
      <point x="631" y="660" type="line" name="sh08"/>
      <point x="671" y="516"/>
      <point x="751" y="232"/>
      <point x="793" y="89" type="qcurve"/>
      <point x="798" y="61" type="line" name="sh10"/>
      <point x="811" y="89" type="line"/>
      <point x="892" y="232"/>
      <point x="1051" y="516"/>
      <point x="1132" y="660" type="qcurve" name="sh12"/>
      <point x="1063" y="660" type="line" name="sh13"/>
      <point x="1069" y="700" type="line" name="sv02"/>
      <point x="1270" y="700" type="line"/>
      <point x="1265" y="660" type="line" name="sh14"/>
      <point x="1175" y="660" type="line" name="sh11"/>
      <point x="1078" y="486"/>
      <point x="882" y="142"/>
      <point x="785" y="-32" type="qcurve" name="sh05"/>
      <point x="666" y="385" type="line"/>
      <point x="661" y="412" type="line" name="ih02"/>
      <point x="606" y="301"/>
      <point x="474" y="77"/>
      <point x="413" y="-32" type="qcurve" name="ah01"/>
      <point x="363" y="142"/>
      <point x="265" y="486"/>
      <point x="215" y="660" type="qcurve" name="sh01"/>
      <point x="131" y="660" type="line" name="sh15"/>
    </contour>
  </outline>
</glyph>
<glyph name="Y" format="1">
  <advance width="746"/>
  <unicode hex="0059"/>
  <outline>
    <contour>
      <point x="280" y="40" type="line" name="sh01"/>
      <point x="354" y="40" type="line" name="dh01"/>
      <point x="385" y="265" type="line" name="sh02"/>
      <point x="340" y="364"/>
      <point x="250" y="561"/>
      <point x="205" y="660" type="qcurve" name="sh03"/>
      <point x="127" y="660" type="line" name="sh04"/>
      <point x="133" y="700" type="line" name="at01"/>
      <point x="334" y="700" type="line"/>
      <point x="329" y="660" type="line" name="sh06"/>
      <point x="256" y="660" type="line" name="sh05"/>
      <point x="294" y="577"/>
      <point x="370" y="413"/>
      <point x="407" y="330" type="qcurve"/>
      <point x="415" y="302" type="line" name="ih01"/>
      <point x="416" y="302" type="line"/>
      <point x="431" y="330" type="line"/>
      <point x="674" y="660" type="line" name="sh09"/>
      <point x="603" y="660" type="line" name="sh10"/>
      <point x="608" y="700" type="line" name="sv01"/>
      <point x="809" y="700" type="line"/>
      <point x="804" y="660" type="line" name="sh11"/>
      <point x="725" y="660" type="line" name="sh08"/>
      <point x="652" y="560"/>
      <point x="507" y="364" name="fh01"/>
      <point x="434" y="265" type="qcurve" name="sh07"/>
      <point x="403" y="40" type="line" name="dh02"/>
      <point x="481" y="40" type="line" name="sh12"/>
      <point x="476" y="0" type="line"/>
      <point x="275" y="0" type="line" name="ab01"/>
    </contour>
  </outline>
</glyph>
<glyph name="bracketleft" format="1">
  <advance width="338"/>
  <unicode hex="005B"/>
  <outline>
    <contour>
      <point x="20" y="-149" type="line"/>
      <point x="26" y="-108" type="line" name="ah01"/>
      <point x="145" y="746" type="line" name="sh01"/>
      <point x="320" y="746" type="line" name="sh02"/>
      <point x="314" y="705" type="line" name="sv01"/>
      <point x="182" y="705" type="line" name="sh04"/>
      <point x="68" y="-108" type="line" name="sh03"/>
      <point x="200" y="-108" type="line" name="sh05"/>
      <point x="195" y="-149" type="line" name="av01"/>
    </contour>
  </outline>
</glyph>
<glyph name="backslash" format="1">
  <advance width="346"/>
  <unicode hex="005C"/>
  <outline>
    <contour>
      <point x="109" y="736" type="line" name="sh01"/>
      <point x="152" y="546"/>
      <point x="237" y="171"/>
      <point x="280" y="-19" type="qcurve" name="sh02"/>
      <point x="234" y="-19" type="line" name="sh03"/>
      <point x="191" y="171"/>
      <point x="106" y="546"/>
      <point x="63" y="736" type="qcurve" name="ah01"/>
    </contour>
  </outline>
</glyph>
<glyph name="bracketright" format="1">
  <advance width="342"/>
  <unicode hex="005D"/>
  <outline>
    <contour>
      <point x="313" y="746" type="line" name="sh01"/>
      <point x="193" y="-111" type="line" name="ah01"/>
      <point x="188" y="-149" type="line"/>
      <point x="14" y="-149" type="line" name="av01"/>
      <point x="19" y="-108" type="line" name="sh02"/>
      <point x="151" y="-108" type="line" name="sh03"/>
      <point x="265" y="705" type="line" name="sh04"/>
      <point x="133" y="705" type="line" name="sv01"/>
      <point x="138" y="746" type="line" name="sh05"/>
    </contour>
  </outline>
</glyph>
<glyph name="asciicircum" format="1">
  <advance width="470"/>
  <unicode hex="005E"/>
  <outline>
    <contour>
      <point x="244" y="660" type="qcurve" name="sv01"/>
      <point x="268" y="615"/>
      <point x="315" y="524"/>
      <point x="339" y="479" type="qcurve" name="sh01"/>
      <point x="306" y="479" type="line" name="sh02"/>
      <point x="288" y="509"/>
      <point x="253" y="570"/>
      <point x="236" y="600" type="qcurve" name="sv02"/>
      <point x="210" y="570"/>
      <point x="158" y="509"/>
      <point x="132" y="479" type="qcurve" name="sh03"/>
      <point x="99" y="479" type="line" name="ah01"/>
      <point x="135" y="524"/>
      <point x="208" y="615"/>
    </contour>
  </outline>
</glyph>
<glyph name="a" format="1">
  <advance width="538"/>
  <unicode hex="0061"/>
  <outline>
    <contour>
      <point x="62" y="188" type="qcurve" name="dh01"/>
      <point x="68" y="228" name="fh01"/>
      <point x="108" y="299" name="fh02"/>
      <point x="138.5" y="325.5" type="qcurve" smooth="yes" name="inserted"/>
      <point x="169" y="352" name="fh03"/>
      <point x="245" y="383"/>
      <point x="286" y="383" type="qcurve" name="at01"/>
      <point x="315" y="383"/>
      <point x="365" y="366" name="fh04"/>
      <point x="384.0" y="352.5" type="qcurve" smooth="yes" name="inserted"/>
      <point x="403" y="339" name="fh05"/>
      <point x="428" y="304"/>
      <point x="432" y="287" type="qcurve" name="sh02"/>
      <point x="435" y="309"/>
      <point x="444" y="353"/>
      <point x="448" y="375" type="qcurve" name="at02"/>
      <point x="482" y="375" type="line" name="sh03"/>
      <point x="435" y="40" type="line" name="dh02"/>
      <point x="509" y="40" type="line" name="sh04"/>
      <point x="503" y="0" type="line" name="ab02"/>
      <point x="392" y="0" type="line"/>
      <point x="398" y="40" type="line" name="sh01"/>
      <point x="400" y="52"/>
      <point x="402" y="75"/>
      <point x="404" y="86" type="qcurve" name="iv01"/>
      <point x="395" y="69" name="fh06"/>
      <point x="362" y="35" name="fh07"/>
      <point x="339.5" y="22.0" type="qcurve" smooth="yes" name="inserted"/>
      <point x="317" y="9" name="fv01"/>
      <point x="262" y="-7"/>
      <point x="232" y="-7" type="qcurve" name="ab01"/>
      <point x="191" y="-7"/>
      <point x="123" y="24" name="fh08"/>
      <point x="100.0" y="50.0" type="qcurve" smooth="yes" name="inserted"/>
      <point x="77" y="76" name="fh09"/>
      <point x="56" y="147"/>
    </contour>
    <contour>
      <point x="104" y="188" type="qcurve" name="sh05"/>
      <point x="99" y="156"/>
      <point x="115" y="100" name="fh10"/>
      <point x="133.0" y="79.0" type="qcurve" smooth="yes" name="inserted"/>
      <point x="151" y="58" name="fh11"/>
      <point x="204" y="34"/>
      <point x="237" y="34" type="qcurve" name="sv01"/>
      <point x="270" y="34"/>
      <point x="330" y="58"/>
      <point x="354.0" y="79.0" type="qcurve" smooth="yes" name="inserted"/>
      <point x="378" y="100"/>
      <point x="409" y="156"/>
      <point x="414" y="188" type="qcurve" name="ih01"/>
      <point x="418" y="220" name="mh01"/>
      <point x="402" y="277"/>
      <point x="384.0" y="298.0" type="qcurve" smooth="yes" name="inserted"/>
      <point x="366" y="319"/>
      <point x="313" y="343"/>
      <point x="280" y="343" type="qcurve" name="sv02"/>
      <point x="247" y="343"/>
      <point x="188" y="319" name="fh12"/>
      <point x="164.0" y="298.0" type="qcurve" smooth="yes" name="inserted"/>
      <point x="140" y="277"/>
      <point x="108" y="220"/>
    </contour>
  </outline>
</glyph>
<glyph name="b" format="1">
  <advance width="538"/>
  <unicode hex="0062"/>
  <outline>
    <contour>
      <point x="41" y="40" type="line" name="sh01"/>
      <point x="115" y="40" type="line" name="dh01"/>
      <point x="210" y="710" type="line" name="sh02"/>
      <point x="139" y="710" type="line" name="sh03"/>
      <point x="145" y="750" type="line" name="at01"/>
      <point x="257" y="750" type="line" name="sh05"/>
      <point x="199" y="337" type="line"/>
      <point x="196" y="325"/>
      <point x="191" y="300"/>
      <point x="188" y="288" type="qcurve" name="ih01"/>
      <point x="197" y="306"/>
      <point x="232" y="340"/>
      <point x="254.5" y="353.5" type="qcurve" smooth="yes" name="inserted"/>
      <point x="277" y="367"/>
      <point x="332" y="383"/>
      <point x="361" y="383" type="qcurve" name="at02"/>
      <point x="402" y="383"/>
      <point x="470" y="352" name="fh01"/>
      <point x="492.5" y="325.5" type="qcurve" smooth="yes" name="inserted"/>
      <point x="515" y="299" name="fh02"/>
      <point x="536" y="228"/>
      <point x="530" y="188" type="qcurve" name="dh02"/>
      <point x="524" y="147"/>
      <point x="484" y="76" name="fh03"/>
      <point x="453.5" y="50.0" type="qcurve" smooth="yes" name="inserted"/>
      <point x="423" y="24" name="fh04"/>
      <point x="347" y="-7"/>
      <point x="306" y="-7" type="qcurve" name="ab01"/>
      <point x="276" y="-7"/>
      <point x="225" y="9"/>
      <point x="206.0" y="22.0" type="qcurve" smooth="yes" name="inserted"/>
      <point x="187" y="35" name="fh05"/>
      <point x="163" y="69"/>
      <point x="159" y="86" type="qcurve" name="ih02"/>
      <point x="157" y="75"/>
      <point x="155" y="52"/>
      <point x="153" y="40" type="qcurve" name="sh04"/>
      <point x="147" y="0" type="line"/>
      <point x="35" y="0" type="line" name="ab02"/>
    </contour>
    <contour>
      <point x="488" y="188" type="qcurve" name="sh06"/>
      <point x="492" y="220"/>
      <point x="477" y="277" name="fh06"/>
      <point x="459.0" y="298.0" type="qcurve" smooth="yes" name="inserted"/>
      <point x="441" y="319" name="fh07"/>
      <point x="388" y="343"/>
      <point x="355" y="343" type="qcurve" name="sv01"/>
      <point x="322" y="343"/>
      <point x="262" y="319"/>
      <point x="238.0" y="298.0" type="qcurve" smooth="yes" name="inserted"/>
      <point x="214" y="277"/>
      <point x="182" y="220"/>
      <point x="178" y="188" type="qcurve" name="ih03"/>
      <point x="173" y="156" name="fh08"/>
      <point x="189" y="100" name="fh09"/>
      <point x="207.0" y="79.0" type="qcurve" smooth="yes" name="inserted"/>
      <point x="225" y="58" name="fh10"/>
      <point x="278" y="34"/>
      <point x="311" y="34" type="qcurve" name="sv02"/>
      <point x="344" y="34"/>
      <point x="404" y="58"/>
      <point x="428.0" y="79.0" type="qcurve" smooth="yes" name="inserted"/>
      <point x="452" y="100" name="fh11"/>
      <point x="483" y="156"/>
    </contour>
  </outline>
</glyph>
<glyph name="c" format="1">
  <advance width="391"/>
  <unicode hex="0063"/>
  <outline>
    <contour>
      <point x="361" y="36" type="line" name="ih01"/>
      <point x="332" y="16"/>
      <point x="267" y="-7"/>
      <point x="231" y="-7" type="qcurve" name="ab01"/>
      <point x="190" y="-7"/>
      <point x="123" y="24" name="fh01"/>
      <point x="100.0" y="50.0" type="qcurve" smooth="yes" name="inserted"/>
      <point x="77" y="76"/>
      <point x="56" y="147"/>
      <point x="62" y="188" type="qcurve" name="dh01"/>
      <point x="68" y="228"/>
      <point x="108" y="300" name="fh02"/>
      <point x="138.5" y="326.0" type="qcurve" smooth="yes" name="inserted"/>
      <point x="169" y="352" name="fh03"/>
      <point x="245" y="383"/>
      <point x="286" y="383" type="qcurve" name="at01"/>
      <point x="322" y="383"/>
      <point x="382" y="360"/>
      <point x="404" y="340" type="qcurve" name="sh01"/>
      <point x="390" y="242" type="line" name="dh02"/>
      <point x="352" y="242" type="line" name="sh02"/>
      <point x="363" y="316" type="line" name="sh03"/>
      <point x="346" y="329"/>
      <point x="304" y="343"/>
      <point x="280" y="343" type="qcurve" name="sv01"/>
      <point x="247" y="343"/>
      <point x="187" y="319"/>
      <point x="163.5" y="298.0" type="qcurve" smooth="yes" name="inserted"/>
      <point x="140" y="277" name="fh04"/>
      <point x="108" y="220"/>
      <point x="104" y="188" type="qcurve" name="sh04"/>
      <point x="99" y="156"/>
      <point x="115" y="100" name="fh05"/>
      <point x="133.0" y="79.0" type="qcurve" smooth="yes" name="inserted"/>
      <point x="151" y="58" name="fh06"/>
      <point x="203" y="34"/>
      <point x="236" y="34" type="qcurve" name="sv02"/>
      <point x="265" y="34"/>
      <point x="317" y="51" name="fv01"/>
      <point x="339" y="67" type="qcurve" name="sv03"/>
    </contour>
  </outline>
</glyph>
<glyph name="d" format="1">
  <advance width="538"/>
  <unicode hex="0064"/>
  <outline>
    <contour>
      <point x="398" y="40" type="line" name="sh01"/>
      <point x="400" y="52"/>
      <point x="402" y="75"/>
      <point x="404" y="86" type="qcurve" name="ih01"/>
      <point x="395" y="69"/>
      <point x="362" y="35" name="fh01"/>
      <point x="339.5" y="22.0" type="qcurve" smooth="yes" name="inserted"/>
      <point x="317" y="9" name="fh02"/>
      <point x="262" y="-7"/>
      <point x="232" y="-7" type="qcurve" name="ab01"/>
      <point x="191" y="-7"/>
      <point x="123" y="24" name="fh03"/>
      <point x="100.0" y="50.0" type="qcurve" smooth="yes" name="inserted"/>
      <point x="77" y="76" name="fh04"/>
      <point x="56" y="147"/>
      <point x="62" y="188" type="qcurve" name="dh01"/>
      <point x="68" y="228"/>
      <point x="108" y="299" name="fh05"/>
      <point x="138.5" y="325.5" type="qcurve" smooth="yes" name="inserted"/>
      <point x="169" y="352" name="fh06"/>
      <point x="245" y="383"/>
      <point x="286" y="383" type="qcurve" name="at01"/>
      <point x="315" y="383"/>
      <point x="364" y="367" name="fv01"/>
      <point x="383.0" y="353.5" type="qcurve" smooth="yes" name="inserted"/>
      <point x="402" y="340" name="fh07"/>
      <point x="427" y="306"/>
      <point x="432" y="288" type="qcurve" name="ih02"/>
      <point x="434" y="309"/>
      <point x="438" y="351"/>
      <point x="440" y="372" type="qcurve"/>
      <point x="488" y="710" type="line" name="sh02"/>
      <point x="417" y="710" type="line" name="sh03"/>
      <point x="423" y="750" type="line" name="at02"/>
      <point x="535" y="750" type="line" name="sh04"/>
      <point x="435" y="40" type="line" name="dh02"/>
      <point x="509" y="40" type="line" name="sh05"/>
      <point x="503" y="0" type="line" name="ab02"/>
      <point x="392" y="0" type="line"/>
    </contour>
    <contour>
      <point x="104" y="188" type="qcurve" name="sh06"/>
      <point x="99" y="156"/>
      <point x="115" y="100" name="fh08"/>
      <point x="133.0" y="79.0" type="qcurve" smooth="yes" name="inserted"/>
      <point x="151" y="58" name="fh09"/>
      <point x="204" y="34"/>
      <point x="237" y="34" type="qcurve" name="sv01"/>
      <point x="270" y="34"/>
      <point x="330" y="58" name="fv02"/>
      <point x="354.0" y="79.0" type="qcurve" smooth="yes" name="inserted"/>
      <point x="378" y="100"/>
      <point x="409" y="156"/>
      <point x="414" y="188" type="qcurve" name="ih03"/>
      <point x="418" y="220"/>
      <point x="402" y="277" name="fh10"/>
      <point x="384.0" y="298.0" type="qcurve" smooth="yes" name="inserted"/>
      <point x="366" y="319"/>
      <point x="313" y="343"/>
      <point x="280" y="343" type="qcurve" name="sv02"/>
      <point x="247" y="343"/>
      <point x="188" y="319"/>
      <point x="164.0" y="298.0" type="qcurve" smooth="yes" name="inserted"/>
      <point x="140" y="277" name="fh11"/>
      <point x="108" y="220"/>
    </contour>
  </outline>
</glyph>
<glyph name="i" format="1">
  <advance width="263"/>
  <unicode hex="0069"/>
  <outline>
    <contour>
      <point x="40" y="40" type="line" name="sh01"/>
      <point x="117" y="40" type="line" name="dh01"/>
      <point x="159" y="335" type="line" name="sh02"/>
      <point x="81" y="335" type="line" name="sh03"/>
      <point x="87" y="375" type="line" name="at01"/>
      <point x="206" y="375" type="line" name="sh04"/>
      <point x="159" y="40" type="line" name="dh02"/>
      <point x="233" y="40" type="line" name="sh05"/>
      <point x="228" y="0" type="line"/>
      <point x="35" y="0" type="line" name="ab01"/>
    </contour>
    <contour>
      <point x="172" y="508" type="qcurve" name="sh07"/>
      <point x="174" y="522"/>
      <point x="196" y="541"/>
      <point x="209" y="541" type="qcurve" name="sv01"/>
      <point x="222" y="541"/>
      <point x="239" y="522"/>
      <point x="237" y="508" type="qcurve" name="sh06"/>
      <point x="235" y="494"/>
      <point x="212" y="475"/>
      <point x="200" y="475" type="qcurve" name="av01"/>
      <point x="187" y="475"/>
      <point x="170" y="494"/>
    </contour>
  </outline>
</glyph>
<glyph name="k" format="1">
  <advance width="503"/>
  <unicode hex="006B"/>
  <outline>
    <contour>
      <point x="288" y="40" type="line" name="sh03"/>
      <point x="336" y="40" type="line"/>
      <point x="312" y="80" name="sh02"/>
      <point x="265" y="159"/>
      <point x="242" y="199" type="qcurve" name="sh04"/>
      <point x="169" y="139" type="line" name="ih01"/>
      <point x="155" y="40" type="line" name="dh02"/>
      <point x="233" y="40" type="line" name="sh06"/>
      <point x="228" y="0" type="line"/>
      <point x="35" y="0" type="line" name="ab01"/>
      <point x="40" y="40" type="line" name="sh07"/>
      <point x="114" y="40" type="line" name="dh01"/>
      <point x="208" y="710" type="line" name="sh08"/>
      <point x="138" y="710" type="line" name="sh09"/>
      <point x="143" y="750" type="line" name="at01"/>
      <point x="255" y="750" type="line" name="sh05"/>
      <point x="176" y="190" type="line" name="ih02"/>
      <point x="352" y="335" type="line" name="sh10"/>
      <point x="291" y="335" type="line" name="sh11"/>
      <point x="297" y="375" type="line" name="at02"/>
      <point x="482" y="375" type="line"/>
      <point x="476" y="335" type="line" name="sh13"/>
      <point x="404" y="335" type="line" name="sh12"/>
      <point x="369" y="306"/>
      <point x="311" y="256"/>
      <point x="276" y="227" type="qcurve" name="sh14"/>
      <point x="303" y="179"/>
      <point x="358" y="87" name="sh01"/>
      <point x="386" y="40" type="qcurve"/>
      <point x="473" y="40" type="line" name="sh15"/>
      <point x="468" y="0" type="line"/>
      <point x="283" y="0" type="line" name="sv01"/>
    </contour>
  </outline>
</glyph>
<glyph name="m" format="1">
  <advance width="828"/>
  <unicode hex="006D"/>
  <outline>
    <contour>
      <point x="605" y="40" type="line" name="sh02"/>
      <point x="683" y="40" type="line" name="sh01"/>
      <point x="713" y="260" type="line" name="sh03"/>
      <point x="716" y="292" name="fh01"/>
      <point x="680" y="340" name="fh02"/>
      <point x="638" y="342" type="qcurve" name="sv01"/>
      <point x="608" y="342"/>
      <point x="550" y="322"/>
      <point x="526.5" y="304.0" type="qcurve" smooth="yes" name="inserted"/>
      <point x="503" y="286"/>
      <point x="470" y="237"/>
      <point x="465" y="208" type="qcurve" name="ih02"/>
      <point x="442" y="40" type="line" name="sh04"/>
      <point x="516" y="40" type="line" name="sh06"/>
      <point x="511" y="0" type="line"/>
      <point x="317" y="0" type="line" name="sv02"/>
      <point x="322" y="40" type="line" name="sh07"/>
      <point x="400" y="40" type="line" name="ih01"/>
      <point x="431" y="260" type="line" name="sh08"/>
      <point x="434" y="292" name="fh03"/>
      <point x="398" y="340" name="fh04"/>
      <point x="356" y="342" type="qcurve" name="sv03"/>
      <point x="325" y="342"/>
      <point x="267" y="321"/>
      <point x="243.0" y="303.0" type="qcurve" smooth="yes" name="inserted"/>
      <point x="219" y="285"/>
      <point x="186" y="235"/>
      <point x="182" y="205" type="qcurve" name="ih03"/>
      <point x="159" y="40" type="line" name="sh09"/>
      <point x="233" y="40" type="line" name="sh11"/>
      <point x="228" y="0" type="line"/>
      <point x="35" y="0" type="line" name="ab01"/>
      <point x="40" y="40" type="line" name="sh12"/>
      <point x="118" y="40" type="line" name="dh01"/>
      <point x="159" y="335" type="line" name="sh13"/>
      <point x="88" y="335" type="line" name="sh14"/>
      <point x="93" y="375" type="line" name="at01"/>
      <point x="199" y="375" type="line"/>
      <point x="195" y="340" type="line"/>
      <point x="193" y="323"/>
      <point x="192" y="295"/>
      <point x="190" y="278" type="qcurve" name="sh10"/>
      <point x="217" y="326"/>
      <point x="312" y="382"/>
      <point x="369" y="383" type="qcurve" name="at02"/>
      <point x="420" y="383" name="fv01"/>
      <point x="476" y="328" name="fh05"/>
      <point x="475" y="283" type="qcurve" name="sh05"/>
      <point x="503" y="328"/>
      <point x="596" y="382"/>
      <point x="651" y="383" type="qcurve" name="at03"/>
      <point x="706" y="383" name="fh06"/>
      <point x="762" y="321" name="fh07"/>
      <point x="757" y="271" type="qcurve" name="sh15"/>
      <point x="724" y="40" type="line" name="dh02"/>
      <point x="798" y="40" type="line" name="sh16"/>
      <point x="793" y="0" type="line"/>
      <point x="600" y="0" type="line" name="sv04"/>
    </contour>
  </outline>
</glyph>
<glyph name="r" format="1">
  <advance width="344"/>
  <unicode hex="0072"/>
  <outline>
    <contour>
      <point x="40" y="40" type="line" name="sh01"/>
      <point x="118" y="40" type="line" name="dh01"/>
      <point x="159" y="335" type="line" name="sh02"/>
      <point x="88" y="335" type="line" name="sh03"/>
      <point x="93" y="375" type="line" name="at01"/>
      <point x="199" y="375" type="line" name="sh06"/>
      <point x="195" y="340" type="line"/>
      <point x="193" y="323"/>
      <point x="192" y="295"/>
      <point x="190" y="278" type="qcurve" name="sh05"/>
      <point x="204" y="302"/>
      <point x="244" y="341"/>
      <point x="267.0" y="354.5" type="qcurve" smooth="yes" name="inserted"/>
      <point x="290" y="368"/>
      <point x="339" y="383"/>
      <point x="362" y="383" type="qcurve" name="dh02"/>
      <point x="354" y="342" type="line" name="sv01"/>
      <point x="322" y="341"/>
      <point x="264" y="320"/>
      <point x="240.5" y="302.0" type="qcurve" smooth="yes" name="inserted"/>
      <point x="217" y="284"/>
      <point x="186" y="234"/>
      <point x="182" y="205" type="qcurve" name="iv01"/>
      <point x="159" y="40" type="line" name="sh04"/>
      <point x="233" y="40" type="line" name="sh07"/>
      <point x="228" y="0" type="line"/>
      <point x="35" y="0" type="line" name="ab01"/>
    </contour>
  </outline>
</glyph>
<glyph name="t" format="1">
  <advance width="314"/>
  <unicode hex="0074"/>
  <outline>
    <contour>
      <point x="208" y="619" type="line" name="sh01"/>
      <point x="250" y="619" type="line" name="sh02"/>
      <point x="216" y="375" type="line" name="ih01"/>
      <point x="331" y="375" type="line"/>
      <point x="325" y="334" type="line" name="sh04"/>
      <point x="210" y="334" type="line" name="ih02"/>
      <point x="169" y="40" type="line" name="sh03"/>
      <point x="251" y="40" type="line"/>
      <point x="246" y="0" type="line" name="dh02"/>
      <point x="122" y="0" type="line" name="dh01"/>
      <point x="168" y="334" type="line" name="ih03"/>
      <point x="81" y="334" type="line" name="sh05"/>
      <point x="87" y="375" type="line"/>
      <point x="174" y="375" type="line" name="ih04"/>
    </contour>
  </outline>
</glyph>
<glyph name="v" format="1">
  <advance width="588"/>
  <unicode hex="0076"/>
  <outline>
    <contour>
      <point x="90" y="375" type="line" name="at01"/>
      <point x="275" y="375" type="line"/>
      <point x="270" y="335" type="line" name="sh03"/>
      <point x="205" y="335" type="line" name="sh02"/>
      <point x="231" y="265" name="fh01"/>
      <point x="283" y="123" name="fh02"/>
      <point x="306" y="53" type="qcurve" name="sh04"/>
      <point x="346" y="119"/>
      <point x="438" y="263"/>
      <point x="486" y="335" type="qcurve" name="sh06"/>
      <point x="427" y="335" type="line" name="sh07"/>
      <point x="433" y="375" type="line" name="sv01"/>
      <point x="608" y="375" type="line"/>
      <point x="602" y="335" type="line" name="sh08"/>
      <point x="529" y="335" type="line" name="sh05"/>
      <point x="470" y="244"/>
      <point x="353" y="67"/>
      <point x="296" y="-23" type="qcurve" name="ah01"/>
      <point x="261" y="67"/>
      <point x="194" y="244"/>
      <point x="161" y="335" type="qcurve" name="sh01"/>
      <point x="84" y="335" type="line" name="sh09"/>
    </contour>
  </outline>
</glyph>
<glyph name="w" format="1">
  <advance width="848"/>
  <unicode hex="0077"/>
  <outline>
    <contour>
      <point x="699" y="375" type="line" name="sv02"/>
      <point x="868" y="375" type="line"/>
      <point x="862" y="335" type="line" name="sh03"/>
      <point x="794" y="335" type="line" name="sh02"/>
      <point x="736" y="244"/>
      <point x="622" y="67"/>
      <point x="565" y="-23" type="qcurve" name="sh01"/>
      <point x="467" y="249" type="line" name="ih01"/>
      <point x="293" y="-23" type="line" name="ah01"/>
      <point x="260" y="67"/>
      <point x="195" y="244"/>
      <point x="163" y="335" type="qcurve" name="sh05"/>
      <point x="84" y="335" type="line" name="sh06"/>
      <point x="90" y="375" type="line" name="at01"/>
      <point x="269" y="375" type="line"/>
      <point x="264" y="335" type="line" name="sh08"/>
      <point x="205" y="335" type="line" name="sh07"/>
      <point x="231" y="264"/>
      <point x="281" y="123"/>
      <point x="304" y="53" type="qcurve" name="sh09"/>
      <point x="335" y="105"/>
      <point x="400" y="208"/>
      <point x="432" y="260" type="qcurve" name="ih02"/>
      <point x="423" y="335" type="line" name="sh04"/>
      <point x="358" y="335" type="line" name="sh10"/>
      <point x="364" y="375" type="line" name="sv01"/>
      <point x="549" y="375" type="line"/>
      <point x="543" y="335" type="line" name="sh12"/>
      <point x="477" y="335" type="line" name="sh11"/>
      <point x="503" y="264"/>
      <point x="553" y="123"/>
      <point x="576" y="53" type="qcurve" name="sh13"/>
      <point x="618" y="124"/>
      <point x="707" y="264"/>
      <point x="752" y="335" type="qcurve" name="sh14"/>
      <point x="693" y="335" type="line" name="sh15"/>
    </contour>
  </outline>
</glyph>
<glyph name="x" format="1">
  <advance width="503"/>
  <unicode hex="0078"/>
  <outline>
    <contour>
      <point x="87" y="375" type="line" name="at01"/>
      <point x="280" y="375" type="line"/>
      <point x="275" y="335" type="line" name="sh03"/>
      <point x="213" y="335" type="line" name="sh02"/>
      <point x="284" y="214" type="line" name="ih05"/>
      <point x="388" y="335" type="line" name="sh05"/>
      <point x="331" y="335" type="line" name="sh06"/>
      <point x="336" y="375" type="line" name="sv01"/>
      <point x="520" y="375" type="line"/>
      <point x="515" y="335" type="line" name="sh08"/>
      <point x="438" y="335" type="line" name="sh07"/>
      <point x="306" y="181" type="line" name="ih04"/>
      <point x="326" y="145"/>
      <point x="368" y="75"/>
      <point x="389" y="40" type="qcurve" name="ih02"/>
      <point x="473" y="40" type="line" name="dh02"/>
      <point x="468" y="0" type="line"/>
      <point x="275" y="0" type="line" name="sv02"/>
      <point x="280" y="40" type="line" name="sh09"/>
      <point x="337" y="40" type="line" name="sh04"/>
      <point x="319" y="70"/>
      <point x="285" y="129"/>
      <point x="267" y="158" type="qcurve" name="ih06"/>
      <point x="242" y="129"/>
      <point x="192" y="69"/>
      <point x="166" y="40" type="qcurve" name="sh01"/>
      <point x="224" y="40" type="line" name="sh10"/>
      <point x="219" y="0" type="line"/>
      <point x="35" y="0" type="line" name="ab01"/>
      <point x="40" y="40" type="line" name="dh01"/>
      <point x="114" y="40" type="line" name="ih01"/>
      <point x="147" y="78"/>
      <point x="213" y="155"/>
      <point x="247" y="193" type="qcurve" name="ih03"/>
      <point x="225" y="228"/>
      <point x="183" y="299"/>
      <point x="162" y="335" type="qcurve" name="sh11"/>
      <point x="81" y="335" type="line" name="sh12"/>
    </contour>
  </outline>
</glyph>
<glyph name="braceleft" format="1">
  <advance width="291"/>
  <unicode hex="007B"/>
  <outline>
    <contour>
      <point x="89" y="275" type="qcurve" name="sh01"/>
      <point x="97" y="321" type="line" name="iv01"/>
      <point x="121" y="322"/>
      <point x="156" y="349" name="fh01"/>
      <point x="167.5" y="369.0" type="qcurve" smooth="yes" name="inserted"/>
      <point x="179" y="389"/>
      <point x="192" y="436"/>
      <point x="195" y="456" type="qcurve" name="ih01"/>
      <point x="218" y="628" type="line" name="sh02"/>
      <point x="224" y="674"/>
      <point x="248" y="722" name="fh02"/>
      <point x="263.0" y="732.5" type="qcurve" smooth="yes" name="inserted"/>
      <point x="278" y="743" name="fh03"/>
      <point x="314" y="746"/>
      <point x="334" y="746" type="qcurve"/>
      <point x="381" y="746" type="line" name="sh03"/>
      <point x="376" y="705" type="line" name="sv01"/>
      <point x="324" y="705" type="line"/>
      <point x="293" y="705" name="fh04"/>
      <point x="265" y="658"/>
      <point x="256" y="597" type="qcurve" name="sh05"/>
      <point x="236" y="455" type="line" name="ih02"/>
      <point x="230" y="414"/>
      <point x="211" y="361" name="fh05"/>
      <point x="199.5" y="343.5" type="qcurve" smooth="yes" name="inserted"/>
      <point x="188" y="326" name="fh06"/>
      <point x="162" y="306"/>
      <point x="149" y="299" type="qcurve" name="ih03"/>
      <point x="160" y="292"/>
      <point x="180" y="271"/>
      <point x="187.0" y="253.0" type="qcurve" smooth="yes" name="inserted"/>
      <point x="194" y="235" name="fh07"/>
      <point x="198" y="182"/>
      <point x="192" y="142" type="qcurve" name="ih04"/>
      <point x="173" y="1" type="line" name="sh04"/>
      <point x="164" y="-61"/>
      <point x="178" y="-108"/>
      <point x="209" y="-108" type="qcurve"/>
      <point x="261" y="-108" type="line" name="sh06"/>
      <point x="255" y="-148" type="line" name="av01"/>
      <point x="208" y="-148" type="line"/>
      <point x="187" y="-148"/>
      <point x="151" y="-145" name="fh08"/>
      <point x="139.5" y="-132.5" type="qcurve" smooth="yes" name="inserted"/>
      <point x="128" y="-120" name="fh09"/>
      <point x="121" y="-63"/>
      <point x="129" y="-9" type="qcurve" name="ah01"/>
      <point x="149" y="140" type="line" name="ih05"/>
      <point x="152" y="160"/>
      <point x="152" y="207" name="fh10"/>
      <point x="146.0" y="227.0" type="qcurve" smooth="yes" name="inserted"/>
      <point x="140" y="247" name="fh11"/>
      <point x="113" y="274"/>
    </contour>
  </outline>
</glyph>
<glyph name="braceright" format="1">
  <advance width="320"/>
  <unicode hex="007D"/>
  <outline>
    <contour>
      <point x="357" y="321" type="qcurve" name="iv01"/>
      <point x="349" y="275" type="line" name="sh02"/>
      <point x="320" y="273" name="fh01"/>
      <point x="284" y="238"/>
      <point x="273.0" y="213.5" type="qcurve" smooth="yes" name="inserted"/>
      <point x="262" y="189"/>
      <point x="251" y="136"/>
      <point x="248" y="118" type="qcurve" name="ih01"/>
      <point x="228" y="-30" type="line" name="ah01"/>
      <point x="222" y="-77"/>
      <point x="198" y="-125" name="fh02"/>
      <point x="183.0" y="-135.5" type="qcurve" smooth="yes" name="inserted"/>
      <point x="168" y="-146" name="fh03"/>
      <point x="131" y="-148"/>
      <point x="112" y="-148" type="qcurve"/>
      <point x="65" y="-148" type="line" name="mh01"/>
      <point x="71" y="-108" type="line" name="sv01"/>
      <point x="123" y="-108" type="line"/>
      <point x="138" y="-108"/>
      <point x="160" y="-97"/>
      <point x="167.5" y="-84.5" type="qcurve" smooth="yes" name="inserted"/>
      <point x="175" y="-72"/>
      <point x="185" y="-30" name="sh03"/>
      <point x="190" y="1" type="qcurve"/>
      <point x="213" y="165" type="line" name="ih02"/>
      <point x="217" y="197"/>
      <point x="237" y="243" name="fh04"/>
      <point x="249.0" y="258.5" type="qcurve" smooth="yes" name="inserted"/>
      <point x="261" y="274" name="fh05"/>
      <point x="287" y="293"/>
      <point x="297" y="299" type="qcurve" name="mh02"/>
      <point x="286" y="306"/>
      <point x="266" y="326" name="fh06"/>
      <point x="259.0" y="343.5" type="qcurve" smooth="yes" name="inserted"/>
      <point x="252" y="361"/>
      <point x="248" y="414"/>
      <point x="254" y="455" type="qcurve" name="ih03"/>
      <point x="273" y="597" type="line" name="sh04"/>
      <point x="282" y="659"/>
      <point x="268" y="705"/>
      <point x="237" y="705" type="qcurve"/>
      <point x="185" y="705" type="line" name="sv02"/>
      <point x="191" y="746" type="line" name="sh05"/>
      <point x="238" y="746" type="line"/>
      <point x="257" y="746"/>
      <point x="292" y="744" name="fh07"/>
      <point x="304.5" y="733.5" type="qcurve" smooth="yes" name="inserted"/>
      <point x="317" y="723" name="fh08"/>
      <point x="326" y="674"/>
      <point x="320" y="628" type="qcurve" name="sh01"/>
      <point x="300" y="478" type="line" name="ih04"/>
      <point x="297" y="460"/>
      <point x="293" y="407" name="fh09"/>
      <point x="297.0" y="382.5" type="qcurve" smooth="yes" name="inserted"/>
      <point x="301" y="358" name="fh10"/>
      <point x="328" y="322"/>
    </contour>
  </outline>
</glyph>
<glyph name="asciitilde" format="1">
  <advance width="489"/>
  <unicode hex="007E"/>
  <outline>
    <contour>
      <point x="272" y="491" type="qcurve" name="ih01"/>
      <point x="258" y="508"/>
      <point x="237" y="519"/>
      <point x="223" y="519" type="qcurve" name="sv02"/>
      <point x="215" y="519"/>
      <point x="195" y="515"/>
      <point x="185.5" y="509.5" type="qcurve" smooth="yes" name="inserted"/>
      <point x="176" y="504"/>
      <point x="158" y="484"/>
      <point x="154" y="468" type="qcurve" name="sh02"/>
      <point x="148" y="469"/>
      <point x="135" y="469"/>
      <point x="130" y="470" type="qcurve" name="ah01"/>
      <point x="133" y="489"/>
      <point x="153" y="517" name="fh01"/>
      <point x="166.5" y="526.5" type="qcurve" smooth="yes" name="inserted"/>
      <point x="180" y="536" name="fh02"/>
      <point x="211" y="545"/>
      <point x="225" y="545" type="qcurve" name="sv01"/>
      <point x="246" y="545"/>
      <point x="279" y="526"/>
      <point x="293" y="509" type="qcurve" name="ih02"/>
      <point x="306" y="492"/>
      <point x="328" y="481"/>
      <point x="342" y="481" type="qcurve" name="sv03"/>
      <point x="349" y="481"/>
      <point x="369" y="485"/>
      <point x="379.0" y="490.5" type="qcurve" smooth="yes" name="inserted"/>
      <point x="389" y="496"/>
      <point x="406" y="516"/>
      <point x="410" y="532" type="qcurve" name="sh03"/>
      <point x="416" y="531"/>
      <point x="429" y="531"/>
      <point x="435" y="530" type="qcurve" name="sh01"/>
      <point x="427" y="492" name="fh03"/>
      <point x="369" y="455"/>
      <point x="340" y="455" type="qcurve" name="av01"/>
      <point x="319" y="455"/>
      <point x="286" y="474"/>
    </contour>
  </outline>
</glyph>
<glyph name="exclamdown" format="1">
  <advance width="200"/>
  <unicode hex="00A1"/>
  <outline>
    <contour>
      <point x="205" y="518" type="qcurve" name="av01"/>
      <point x="218" y="518"/>
      <point x="234" y="499"/>
      <point x="232" y="485" type="qcurve" name="sh02"/>
      <point x="230" y="471"/>
      <point x="208" y="452"/>
      <point x="196" y="452" type="qcurve" name="sv01"/>
      <point x="183" y="452"/>
      <point x="166" y="471"/>
      <point x="168" y="485" type="qcurve" name="sh01"/>
      <point x="171" y="499"/>
      <point x="193" y="518"/>
    </contour>
    <contour>
      <point x="164" y="374" type="line" name="sh03"/>
      <point x="205" y="374" type="line" name="sh05"/>
      <point x="123" y="-210" type="line" name="sh04"/>
      <point x="82" y="-210" type="line" name="ah01"/>
    </contour>
  </outline>
</glyph>
<glyph name="yen" format="1">
  <advance width="746"/>
  <unicode hex="00A5"/>
  <outline>
    <contour>
      <point x="554" y="100" type="line" name="sh03"/>
      <point x="412" y="100" type="line" name="ih01"/>
      <point x="403" y="40" type="line" name="sh01"/>
      <point x="481" y="40" type="line" name="sh04"/>
      <point x="476" y="0" type="line"/>
      <point x="275" y="0" type="line" name="ab01"/>
      <point x="280" y="40" type="line" name="sh05"/>
      <point x="354" y="40" type="line" name="ah01"/>
      <point x="363" y="100" type="line" name="ih02"/>
      <point x="221" y="100" type="line" name="sh07"/>
      <point x="226" y="141" type="line" name="iv01"/>
      <point x="368" y="141" type="line" name="ih03"/>
      <point x="385" y="263" type="line" name="sh06"/>
      <point x="243" y="263" type="line" name="sh08"/>
      <point x="249" y="304" type="line" name="iv02"/>
      <point x="368" y="304" type="line" name="ih04"/>
      <point x="205" y="660" type="line" name="sh09"/>
      <point x="127" y="660" type="line" name="sh10"/>
      <point x="133" y="700" type="line" name="at01"/>
      <point x="334" y="700" type="line"/>
      <point x="329" y="660" type="line" name="sh12"/>
      <point x="256" y="660" type="line" name="sh11"/>
      <point x="294" y="577"/>
      <point x="372" y="414" name="fh01"/>
      <point x="407" y="330" type="qcurve"/>
      <point x="415" y="302" type="line" name="ih05"/>
      <point x="416" y="302" type="line"/>
      <point x="431" y="330" type="line"/>
      <point x="674" y="660" type="line" name="sh14"/>
      <point x="603" y="660" type="line" name="sh15"/>
      <point x="608" y="700" type="line" name="sv01"/>
      <point x="809" y="700" type="line"/>
      <point x="804" y="660" type="line" name="sh16"/>
      <point x="725" y="660" type="line" name="sh13"/>
      <point x="659" y="570"/>
      <point x="529" y="393"/>
      <point x="463" y="304" type="qcurve" name="ih06"/>
      <point x="582" y="304" type="line"/>
      <point x="576" y="263" type="line" name="sh17"/>
      <point x="434" y="263" type="line" name="sh02"/>
      <point x="418" y="141" type="line" name="ih07"/>
      <point x="560" y="141" type="line"/>
    </contour>
  </outline>
</glyph>
<glyph name="brokenbar" format="1">
  <advance width="215"/>
  <unicode hex="00A6"/>
  <outline>
    <contour>
      <point x="131" y="-233" type="line" name="sh01"/>
      <point x="89" y="-233" type="line" name="ah01"/>
      <point x="138" y="117" type="line" name="ih01"/>
      <point x="180" y="117" type="line" name="ih02"/>
    </contour>
    <contour>
      <point x="212" y="350" type="line" name="ih03"/>
      <point x="170" y="350" type="line" name="ih04"/>
      <point x="220" y="700" type="line" name="sh02"/>
      <point x="262" y="700" type="line" name="sh03"/>
    </contour>
  </outline>
</glyph>
<glyph name="logicalnot" format="1">
  <advance width="559"/>
  <unicode hex="00AC"/>
  <outline>
    <contour>
      <point x="418" y="148" type="line" name="sh01"/>
      <point x="427" y="211" type="line"/>
      <point x="109" y="211" type="line" name="sh02"/>
      <point x="113" y="244" type="line" name="av01"/>
      <point x="473" y="244" type="line"/>
      <point x="460" y="148" type="line" name="ah01"/>
    </contour>
  </outline>
</glyph>
<glyph name="macron" format="1">
  <advance width="399"/>
  <unicode hex="00AF"/>
  <outline>
    <contour>
      <point x="85" y="486" type="line" name="ah01"/>
      <point x="88" y="516" type="line" name="sv01"/>
      <point x="318" y="516" type="line"/>
      <point x="315" y="486" type="line" name="sh01"/>
    </contour>
  </outline>
</glyph>
<glyph name="degree" format="1">
  <advance width="282"/>
  <unicode hex="00B0"/>
  <outline>
    <contour>
      <point x="141" y="503" type="qcurve" name="sv02"/>
      <point x="165" y="503"/>
      <point x="203" y="536"/>
      <point x="206" y="560" type="qcurve" name="sh02"/>
      <point x="210" y="583"/>
      <point x="181" y="616"/>
      <point x="157" y="616" type="qcurve" name="sv03"/>
      <point x="134" y="616"/>
      <point x="96" y="583"/>
      <point x="92" y="560" type="qcurve" name="sh03"/>
      <point x="89" y="536"/>
      <point x="118" y="503"/>
    </contour>
    <contour>
      <point x="63" y="559" type="qcurve" name="ah01"/>
      <point x="68" y="596" name="fh01"/>
      <point x="125" y="646" name="fh02"/>
      <point x="162" y="646" type="qcurve" name="at01"/>
      <point x="198" y="646"/>
      <point x="240" y="596"/>
      <point x="235" y="559" type="qcurve" name="sh01"/>
      <point x="230" y="523" name="fh03"/>
      <point x="174" y="474" name="fv01"/>
      <point x="138" y="474" type="qcurve" name="sv01"/>
      <point x="101" y="474"/>
      <point x="58" y="523"/>
    </contour>
  </outline>
</glyph>
<glyph name="threesuperior" format="1">
  <advance width="419"/>
  <unicode hex="00B3"/>
  <outline>
    <contour>
      <point x="133" y="551" type="qcurve" name="ih01"/>
      <point x="242" y="680" type="line" name="sh03"/>
      <point x="139" y="680" type="line" name="sh06"/>
      <point x="135" y="650" type="line" name="sh05"/>
      <point x="116" y="650" type="line" name="sh04"/>
      <point x="122" y="700" type="line" name="sh07"/>
      <point x="282" y="700" type="line" name="sh02"/>
      <point x="177" y="579" type="line" name="sh08"/>
      <point x="197" y="577"/>
      <point x="229" y="561"/>
      <point x="240.5" y="548.0" type="qcurve" smooth="yes" name="inserted"/>
      <point x="252" y="535"/>
      <point x="262" y="500"/>
      <point x="259" y="479" type="qcurve" name="ah01"/>
      <point x="256" y="458"/>
      <point x="234" y="420" name="fh01"/>
      <point x="218.0" y="406.0" type="qcurve" smooth="yes" name="inserted"/>
      <point x="202" y="392" name="fh02"/>
      <point x="162" y="376"/>
      <point x="141" y="376" type="qcurve" name="sv01"/>
      <point x="118" y="376"/>
      <point x="82" y="394"/>
      <point x="70" y="410" type="qcurve" name="sh01"/>
      <point x="87" y="425" type="line" name="sv02"/>
      <point x="96" y="412"/>
      <point x="124" y="396"/>
      <point x="143" y="396" type="qcurve" name="sv03"/>
      <point x="160" y="396"/>
      <point x="192" y="410"/>
      <point x="205.0" y="421.0" type="qcurve" smooth="yes" name="inserted"/>
      <point x="218" y="432"/>
      <point x="236" y="462"/>
      <point x="238" y="479" type="qcurve" name="sh09"/>
      <point x="241" y="496"/>
      <point x="231" y="526"/>
      <point x="221.5" y="537.0" type="qcurve" smooth="yes" name="inserted"/>
      <point x="212" y="548" name="fh03"/>
      <point x="183" y="561"/>
      <point x="166" y="561" type="qcurve" name="iv01"/>
      <point x="157" y="561"/>
      <point x="141" y="556"/>
    </contour>
  </outline>
</glyph>
<glyph name="acute" format="1">
  <advance width="240"/>
  <unicode hex="00B4"/>
  <outline>
    <contour>
      <point x="100" y="479" type="line" name="ah01"/>
      <point x="127" y="512"/>
      <point x="181" y="579"/>
      <point x="208" y="612" type="qcurve" name="sh02"/>
      <point x="251" y="612" type="line" name="sh01"/>
      <point x="222" y="579"/>
      <point x="162" y="512"/>
      <point x="133" y="479" type="qcurve" name="sh03"/>
    </contour>
  </outline>
</glyph>
<glyph name="mu" format="1">
  <advance width="533"/>
  <unicode hex="00B5"/>
  <outline>
    <contour>
      <point x="392" y="375" type="line" name="sv01"/>
      <point x="507" y="375" type="line" name="sh01"/>
      <point x="460" y="36" type="line" name="dh02"/>
      <point x="531" y="36" type="line" name="sh02"/>
      <point x="526" y="0" type="line" name="ab01"/>
      <point x="418" y="0" type="line"/>
      <point x="421" y="35" type="line" name="sh03"/>
      <point x="430" y="97" type="line" name="ih01"/>
      <point x="403" y="49"/>
      <point x="306" y="-8"/>
      <point x="251" y="-8" type="qcurve" name="ab02"/>
      <point x="224" y="-8"/>
      <point x="187" y="11" name="fh01"/>
      <point x="176" y="28" type="qcurve" name="ih02"/>
      <point x="145" y="-201" type="line" name="sh05"/>
      <point x="103" y="-201" type="line" name="dh01"/>
      <point x="177" y="335" type="line" name="sh07"/>
      <point x="104" y="335" type="line" name="sh08"/>
      <point x="109" y="375" type="line" name="at01"/>
      <point x="225" y="375" type="line" name="sh06"/>
      <point x="189" y="115" type="line" name="ih03"/>
      <point x="186" y="83"/>
      <point x="222" y="35" name="fh02"/>
      <point x="264" y="33" type="qcurve" name="sv02"/>
      <point x="295" y="33"/>
      <point x="353" y="54"/>
      <point x="377.0" y="72.0" type="qcurve" smooth="yes" name="inserted"/>
      <point x="401" y="90"/>
      <point x="433" y="140"/>
      <point x="437" y="170" type="qcurve" name="ih04"/>
      <point x="460" y="335" type="line" name="sh04"/>
      <point x="386" y="335" type="line" name="sh09"/>
    </contour>
  </outline>
</glyph>
<glyph name="periodcentered" format="1">
  <advance width="165"/>
  <unicode hex="00B7"/>
  <outline>
    <contour>
      <point x="52" y="281" type="qcurve" name="ah01"/>
      <point x="54" y="295"/>
      <point x="77" y="314"/>
      <point x="90" y="314" type="qcurve" name="sv01"/>
      <point x="102" y="314"/>
      <point x="120" y="295"/>
      <point x="118" y="281" type="qcurve" name="sh01"/>
      <point x="116" y="267"/>
      <point x="93" y="248"/>
      <point x="81" y="248" type="qcurve" name="av01"/>
      <point x="68" y="248"/>
      <point x="50" y="267"/>
    </contour>
  </outline>
</glyph>
<glyph name="onesuperior" format="1">
  <advance width="259"/>
  <unicode hex="00B9"/>
  <outline>
    <contour>
      <point x="53" y="419" type="line" name="sh01"/>
      <point x="90" y="419" type="line" name="ah01"/>
      <point x="126" y="681" type="line" name="sh02"/>
      <point x="82" y="681" type="line" name="sh03"/>
      <point x="85" y="700" type="line" name="at01"/>
      <point x="148" y="700" type="line" name="sh05"/>
      <point x="109" y="419" type="line" name="sh04"/>
      <point x="145" y="419" type="line" name="sh06"/>
      <point x="143" y="401" type="line"/>
      <point x="51" y="401" type="line" name="sv01"/>
    </contour>
  </outline>
</glyph>
<glyph name="Thorn" format="1">
  <advance width="506"/>
  <unicode hex="00DE"/>
  <outline>
    <contour>
      <point x="40" y="40" type="line" name="sh01"/>
      <point x="111" y="40" type="line" name="dh01"/>
      <point x="198" y="660" type="line" name="sh02"/>
      <point x="127" y="660" type="line" name="sh03"/>
      <point x="133" y="700" type="line" name="at01"/>
      <point x="326" y="700" type="line"/>
      <point x="321" y="660" type="line" name="sh06"/>
      <point x="240" y="660" type="line" name="sh05"/>
      <point x="223" y="535" type="line" name="ih01"/>
      <point x="331" y="535" type="line"/>
      <point x="362" y="535"/>
      <point x="434" y="515" name="fh01"/>
      <point x="463.5" y="493.0" type="qcurve" smooth="yes" name="inserted"/>
      <point x="493" y="471" name="fh02"/>
      <point x="527" y="401"/>
      <point x="520" y="352" type="qcurve" name="dh02"/>
      <point x="508" y="266" name="fh03"/>
      <point x="384" y="164" name="fh04"/>
      <point x="281" y="164" type="qcurve"/>
      <point x="170" y="164" type="line" name="ih02"/>
      <point x="153" y="40" type="line" name="sh04"/>
      <point x="241" y="40" type="line" name="sh07"/>
      <point x="236" y="0" type="line"/>
      <point x="35" y="0" type="line" name="ab01"/>
    </contour>
    <contour>
      <point x="176" y="205" type="line" name="ih03"/>
      <point x="279" y="205" type="line"/>
      <point x="331" y="205"/>
      <point x="405" y="233"/>
      <point x="428.0" y="255.0" type="qcurve" smooth="yes" name="inserted"/>
      <point x="451" y="277" name="fh05"/>
      <point x="475" y="328" name="fv01"/>
      <point x="478" y="352" type="qcurve" name="sh08"/>
      <point x="482" y="380"/>
      <point x="463" y="432" name="fv02"/>
      <point x="442.0" y="452.0" type="qcurve" smooth="yes" name="inserted"/>
      <point x="421" y="472" name="fh06"/>
      <point x="359" y="495"/>
      <point x="322" y="495" type="qcurve"/>
      <point x="217" y="495" type="line" name="ih04"/>
    </contour>
  </outline>
</glyph>
<glyph name="divide" format="1">
  <advance width="501"/>
  <unicode hex="00F7"/>
  <outline>
    <contour>
      <point x="428" y="208" type="line" name="sh02"/>
      <point x="68" y="208" type="line" name="sh03"/>
      <point x="73" y="249" type="line" name="sv01"/>
      <point x="433" y="249" type="line"/>
    </contour>
    <contour>
      <point x="235" y="354" type="qcurve" name="sh04"/>
      <point x="237" y="368"/>
      <point x="260" y="387"/>
      <point x="273" y="387" type="qcurve" name="sv02"/>
      <point x="285" y="387"/>
      <point x="302" y="368"/>
      <point x="300" y="354" type="qcurve" name="sh05"/>
      <point x="298" y="340"/>
      <point x="276" y="321"/>
      <point x="263" y="321" type="qcurve" name="sv03"/>
      <point x="250" y="321"/>
      <point x="233" y="340"/>
    </contour>
    <contour>
      <point x="200" y="104" type="qcurve" name="ah01"/>
      <point x="202" y="118"/>
      <point x="225" y="137"/>
      <point x="238" y="137" type="qcurve" name="sv05"/>
      <point x="250" y="137"/>
      <point x="267" y="118"/>
      <point x="265" y="104" type="qcurve" name="sh01"/>
      <point x="263" y="90"/>
      <point x="241" y="71"/>
      <point x="228" y="71" type="qcurve" name="sv04"/>
      <point x="215" y="71"/>
      <point x="198" y="90"/>
    </contour>
  </outline>
</glyph>
<glyph name="oslash" format="1">
  <advance width="463"/>
  <unicode hex="00F8"/>
  <outline>
    <contour>
      <point x="105" y="188" type="qcurve" name="sh01"/>
      <point x="100" y="158"/>
      <point x="114" y="105"/>
      <point x="130" y="85" type="qcurve" name="ih01"/>
      <point x="187" y="144"/>
      <point x="302" y="260"/>
      <point x="360" y="319" type="qcurve" name="ih02"/>
      <point x="342.5" y="331.0" name="inserted"/>
      <point x="303.0" y="343.0"/>
      <point x="281" y="343" type="qcurve" name="sv02"/>
      <point x="248" y="343"/>
      <point x="188" y="319" name="fv01"/>
      <point x="164.5" y="298.0" type="qcurve" smooth="yes" name="inserted"/>
      <point x="141" y="277" name="fv02"/>
      <point x="109" y="220"/>
    </contour>
    <contour>
      <point x="238" y="34" type="qcurve" name="sv01"/>
      <point x="271" y="34"/>
      <point x="331" y="58" name="fh01"/>
      <point x="355.0" y="79.0" type="qcurve" smooth="yes" name="inserted"/>
      <point x="379" y="100"/>
      <point x="410" y="156"/>
      <point x="415" y="188" type="qcurve" name="sh02"/>
      <point x="420" y="221"/>
      <point x="402" y="279" name="fh02"/>
      <point x="382" y="300" type="qcurve" name="ih03"/>
      <point x="324" y="240"/>
      <point x="208" y="123"/>
      <point x="150" y="64" type="qcurve" name="ih04"/>
      <point x="167.5" y="49.0" name="inserted"/>
      <point x="211.5" y="34.0"/>
    </contour>
    <contour>
      <point x="63" y="188" type="qcurve" name="dh01"/>
      <point x="69" y="228"/>
      <point x="109" y="300" name="fh04"/>
      <point x="139.5" y="326.0" type="qcurve" smooth="yes" name="inserted"/>
      <point x="170" y="352" name="fh05"/>
      <point x="246" y="383"/>
      <point x="287" y="383" type="qcurve" name="at01"/>
      <point x="317" y="383"/>
      <point x="370" y="366" name="fh06"/>
      <point x="391" y="351" type="qcurve" name="ih05"/>
      <point x="401" y="361"/>
      <point x="421" y="380"/>
      <point x="430" y="390" type="qcurve" name="sv03"/>
      <point x="451" y="369" type="line" name="sh03"/>
      <point x="442" y="360"/>
      <point x="422" y="341"/>
      <point x="413" y="331" type="qcurve" name="ih06"/>
      <point x="439" y="305" name="fh07"/>
      <point x="463" y="230"/>
      <point x="457" y="188" type="qcurve" name="dh02"/>
      <point x="451" y="147"/>
      <point x="411" y="76" name="fh08"/>
      <point x="380.5" y="50.0" type="qcurve" smooth="yes" name="inserted"/>
      <point x="350" y="24" name="fh09"/>
      <point x="273" y="-7"/>
      <point x="232" y="-7" type="qcurve" name="ab01"/>
      <point x="198" y="-7"/>
      <point x="141" y="14" name="fh10"/>
      <point x="118" y="33" type="qcurve" name="ih07"/>
      <point x="107" y="21"/>
      <point x="83" y="-3"/>
      <point x="72" y="-15" type="qcurve" name="sv04"/>
      <point x="67" y="-10"/>
      <point x="56" y="0"/>
      <point x="51" y="5" type="qcurve" name="sh04"/>
      <point x="62" y="17"/>
      <point x="86" y="41"/>
      <point x="98" y="53" type="qcurve" name="ih08"/>
      <point x="76" y="79" name="fh11"/>
      <point x="58" y="148"/>
    </contour>
  </outline>
</glyph>
<glyph name="dotlessi" format="1">
  <advance width="263"/>
  <unicode hex="0131"/>
  <outline>
    <contour>
      <point x="40" y="40" type="line" name="sh01"/>
      <point x="117" y="40" type="line" name="dh01"/>
      <point x="159" y="335" type="line" name="sh02"/>
      <point x="81" y="335" type="line" name="sh03"/>
      <point x="87" y="375" type="line" name="at01"/>
      <point x="206" y="375" type="line" name="sh04"/>
      <point x="159" y="40" type="line" name="dh02"/>
      <point x="233" y="40" type="line" name="sh05"/>
      <point x="228" y="0" type="line"/>
      <point x="35" y="0" type="line" name="ab01"/>
    </contour>
  </outline>
</glyph>
<glyph name="ring" format="1">
  <advance width="240"/>
  <unicode hex="02DA"/>
  <outline>
    <contour>
      <point x="137" y="540" type="qcurve" name="sh01"/>
      <point x="135" y="523"/>
      <point x="156" y="497"/>
      <point x="173" y="497" type="qcurve" name="sv01"/>
      <point x="191" y="497"/>
      <point x="220" y="523"/>
      <point x="222" y="540" type="qcurve" name="sh03"/>
      <point x="224" y="557"/>
      <point x="202" y="582"/>
      <point x="185" y="582" type="qcurve" name="sv03"/>
      <point x="168" y="582"/>
      <point x="139" y="557"/>
    </contour>
    <contour>
      <point x="107" y="540" type="qcurve" name="ah01"/>
      <point x="111" y="570"/>
      <point x="159" y="613"/>
      <point x="189" y="613" type="qcurve" name="sv02"/>
      <point x="220" y="613"/>
      <point x="257" y="570"/>
      <point x="252" y="540" type="qcurve" name="sh02"/>
      <point x="247" y="510"/>
      <point x="199" y="467"/>
      <point x="169" y="467" type="qcurve" name="av01"/>
      <point x="139" y="467"/>
      <point x="102" y="510"/>
    </contour>
  </outline>
</glyph>
<glyph name="endash" format="1">
  <advance width="509"/>
  <unicode hex="2013"/>
  <outline>
    <contour>
      <point x="100" y="177" type="line" name="ah01"/>
      <point x="105" y="218" type="line" name="sv01"/>
      <point x="406" y="218" type="line"/>
      <point x="401" y="177" type="line" name="sh01"/>
    </contour>
  </outline>
</glyph>
<glyph name="quoteleft" format="1">
  <advance width="164"/>
  <unicode hex="2018"/>
  <outline>
    <contour>
      <point x="104" y="590" type="qcurve" name="sh01"/>
      <point x="98" y="585"/>
      <point x="87" y="575"/>
      <point x="82" y="570" type="qcurve" name="sv01"/>
      <point x="56" y="596"/>
      <point x="42" y="670"/>
      <point x="56" y="711" type="qcurve" name="ah01"/>
      <point x="64" y="709"/>
      <point x="79" y="706"/>
      <point x="87" y="704" type="qcurve" name="sh02"/>
      <point x="76" y="669"/>
      <point x="86" y="610"/>
    </contour>
  </outline>
</glyph>
<glyph name="quoteright" format="1">
  <advance width="164"/>
  <unicode hex="2019"/>
  <outline>
    <contour>
      <point x="69" y="570" type="qcurve" name="sv01"/>
      <point x="64" y="575"/>
      <point x="57" y="585"/>
      <point x="52" y="590" type="qcurve" name="sh01"/>
      <point x="76" y="610"/>
      <point x="103" y="669"/>
      <point x="101" y="704" type="qcurve" name="sh02"/>
      <point x="109" y="706"/>
      <point x="126" y="709"/>
      <point x="134" y="711" type="qcurve" name="ah01"/>
      <point x="137" y="670"/>
      <point x="101" y="596"/>
    </contour>
  </outline>
</glyph>
<glyph name="quotedblleft" format="1">
  <advance width="249"/>
  <unicode hex="201C"/>
  <outline>
    <contour>
      <point x="203" y="590" type="qcurve" name="sh02"/>
      <point x="197" y="585"/>
      <point x="185" y="575"/>
      <point x="180" y="570" type="qcurve" name="sv02"/>
      <point x="154" y="596"/>
      <point x="140" y="670"/>
      <point x="154" y="711" type="qcurve" name="sh01"/>
      <point x="162" y="709"/>
      <point x="178" y="706"/>
      <point x="186" y="704" type="qcurve" name="sh03"/>
      <point x="174" y="669"/>
      <point x="185" y="610"/>
    </contour>
    <contour>
      <point x="99" y="590" type="qcurve" name="sh04"/>
      <point x="93" y="585"/>
      <point x="81" y="575"/>
      <point x="76" y="570" type="qcurve" name="sv01"/>
      <point x="50" y="596"/>
      <point x="36" y="670"/>
      <point x="50" y="711" type="qcurve" name="ah01"/>
      <point x="58" y="709"/>
      <point x="74" y="706"/>
      <point x="82" y="704" type="qcurve" name="sh05"/>
      <point x="70" y="669"/>
      <point x="81" y="610"/>
    </contour>
  </outline>
</glyph>
<glyph name="quotedblbase" format="1">
  <advance width="277"/>
  <unicode hex="201E"/>
  <outline>
    <contour>
      <point x="40" y="-49" type="qcurve" name="sv01"/>
      <point x="35" y="-44"/>
      <point x="27" y="-34"/>
      <point x="22" y="-29" type="qcurve" name="sh02"/>
      <point x="46" y="-9"/>
      <point x="73" y="50"/>
      <point x="71" y="85" type="qcurve" name="sh03"/>
      <point x="79" y="87"/>
      <point x="96" y="90"/>
      <point x="104" y="92" type="qcurve" name="sh01"/>
      <point x="107" y="51"/>
      <point x="72" y="-23"/>
    </contour>
    <contour>
      <point x="144" y="-49" type="qcurve" name="sv02"/>
      <point x="139" y="-44"/>
      <point x="131" y="-34"/>
      <point x="126" y="-29" type="qcurve" name="sh04"/>
      <point x="150" y="-9"/>
      <point x="177" y="50"/>
      <point x="175" y="85" type="qcurve" name="sh05"/>
      <point x="183" y="87"/>
      <point x="200" y="90"/>
      <point x="208" y="92" type="qcurve" name="ah01"/>
      <point x="211" y="51"/>
      <point x="176" y="-23"/>
    </contour>
  </outline>
</glyph>
<glyph name="bullet" format="1">
  <advance width="479"/>
  <unicode hex="2022"/>
  <outline>
    <contour>
      <point x="162" y="300" type="qcurve" name="dh01"/>
      <point x="165" y="319"/>
      <point x="183" y="352"/>
      <point x="197.0" y="364.5" type="qcurve" smooth="yes" name="inserted"/>
      <point x="211" y="377"/>
      <point x="245" y="391"/>
      <point x="264" y="391" type="qcurve" name="dv01"/>
      <point x="302" y="391"/>
      <point x="347" y="338"/>
      <point x="342" y="300" type="qcurve" name="dh02"/>
      <point x="339" y="281"/>
      <point x="321" y="249"/>
      <point x="307.0" y="237.0" type="qcurve" smooth="yes" name="inserted"/>
      <point x="293" y="225"/>
      <point x="258" y="211"/>
      <point x="239" y="211" type="qcurve" name="dv02"/>
      <point x="201" y="211"/>
      <point x="157" y="262"/>
    </contour>
  </outline>
</glyph>
<glyph name="guilsinglleft" format="1">
  <advance width="392"/>
  <unicode hex="2039"/>
  <outline>
    <contour>
      <point x="288" y="77" type="line" name="sh01"/>
      <point x="139" y="239" type="line" name="ah01"/>
      <point x="188" y="280"/>
      <point x="284" y="359"/>
      <point x="333" y="400" type="qcurve" name="sh02"/>
      <point x="327" y="352" type="line" name="sv01"/>
      <point x="295" y="323"/>
      <point x="231" y="268"/>
      <point x="199" y="239" type="qcurve" name="sh03"/>
      <point x="222" y="210"/>
      <point x="271" y="154"/>
      <point x="294" y="125" type="qcurve" name="sv02"/>
    </contour>
  </outline>
</glyph>
